<svg xmlns="http://www.w3.org/2000/svg" viewBox="0 0 600 599.97"><defs><style>.cls-1{fill:#010201;}</style></defs><title>borde_re</title><g id="Capa_2" data-name="Capa 2"><g id="Capa_1-2" data-name="Capa 1"><g id="borde_re"><path d="M0,596.8V600H3.08A10.35,10.35,0,0,1,0,596.8Z"/><path d="M3.19,0H0V3.08A10.27,10.27,0,0,1,3.19,0Z"/><path d="M600,3.19V0H596.9A10.39,10.39,0,0,1,600,3.19Z"/><path d="M596.82,600H600v-3.08A10.5,10.5,0,0,1,596.82,600Z"/><g id="costura"><path class="cls-1" d="M139.29,273.79l-.22-.35.38-.25.23.35Zm-.72-1.12-.5-.76.38-.25.5.77Zm-1-1.53-.49-.76.38-.25.5.76Zm-1-1.53-.5-.77.38-.25.5.77Zm-1.05-1.45-.62-.68.33-.31.63.68Zm-1.24-1.36-.62-.67.34-.31.61.67Zm-1.24-1.35-.62-.68.34-.3.62.67Zm-1.24-1.35-.61-.68.33-.3.62.67Zm-1.23-1.35-.62-.68.34-.31.62.68Zm-1.24-1.35-.61-.68.33-.31.62.68Zm-1.23-1.35-.62-.68.34-.31.62.68Zm-1.23-1.35-.62-.68.34-.31.61.68Zm-1.24-1.35-.62-.68.34-.31.62.68ZM124.41,256l-.62-.67.34-.31.62.68Zm-1.23-1.35-.62-.67.34-.31.61.67Zm-1.24-1.35-.61-.67.33-.31.62.67Zm-1.23-1.35-.62-.68.34-.3.62.67Zm-1.23-1.35-.62-.68.34-.31.62.68Zm-1.23-1.35-.62-.68.34-.31.62.68ZM117,247.88l-.62-.67.34-.31.62.68Zm-1.23-1.35-.62-.68.34-.31.61.68Zm-1.24-1.36-.61-.67.34-.31.61.68Zm-1.22-1.35-.62-.67.34-.31.61.67Zm-1.23-1.35-.62-.68.34-.31.62.68Zm-1.23-1.36-.61-.67.33-.31.62.68Zm-1.23-1.35-.61-.68.34-.31.61.68Zm-1.22-1.36-.62-.68.34-.3.61.67ZM107.19,237l-.61-.68.33-.3.62.68ZM106,235.69l-.61-.68.34-.31.61.68Zm-1.22-1.36-.61-.68.34-.31.61.68ZM103.52,233l-.62-.69.35-.3.61.68Zm-1.22-1.37-.6-.66.32-.32.61.68Zm-1.23-1.36-.6-.68.34-.31.6.68Zm-1.21-1.37-.61-.69.34-.3.61.69Zm-1.21-1.38-.59-.7.35-.29.59.69Zm-1.17-1.41-.58-.71.35-.29.58.71Zm-1.16-1.42-.56-.72.35-.28.57.71Zm-1.13-1.44-.56-.73.36-.28.56.73Zm-1.12-1.45-.55-.73.36-.28.56.73ZM93,220.31l-.55-.73.36-.28.55.73Zm-1.1-1.47-.55-.73.37-.27.55.73Zm-1.09-1.47-.54-.74.37-.27.54.74Zm-1.08-1.48-.54-.74.37-.26.54.74Zm-1.07-1.48-.54-.74.37-.27.54.75Zm-1.07-1.48-.53-.75.37-.26.53.74Zm-1.07-1.49-.52-.75.37-.26.53.74Zm-1-1.49-.53-.75.37-.26.53.74Zm-1.06-1.5-.52-.75.37-.26.53.75Zm-1-1.5-.52-.75.37-.26.53.75Zm-1-1.5-.52-.75.38-.26.52.75Zm-1-1.5-.52-.76.38-.26.52.76Zm-1-1.51-.5-.73.36-.28.52.75Zm-1-1.51-.52-.75.38-.26.51.75Zm-1-1.51-.5-.73.36-.28.51.76Zm-1-1.51-.51-.75.38-.26.51.75Zm-1-1.51-.52-.76.38-.26.51.76Zm-1-1.52-.51-.76.38-.25.51.76Zm-1-1.51-.51-.76.38-.26.51.76Zm-1-1.52-.51-.76.38-.26.51.76Zm-1-1.52-.51-.76.38-.26.51.76Zm-1-1.53-.5-.76.38-.25.5.76Zm-1-1.52-.51-.76.38-.25.51.76Zm-1-1.53-.51-.76.38-.25.51.76Zm-1-1.53-.51-.76.38-.25.51.76Zm-1-1.53-.51-.77.38-.25.51.77Z"/><path class="cls-1" d="M144.08,270.43s-.15-.31-.39-.77l.4-.21c.43.81.43.81.43.88Zm-.82-1.58c-.13-.25-.28-.52-.44-.8l.4-.22c.16.28.31.56.44.8Zm-.88-1.6-.45-.79.39-.23.46.8Zm-.92-1.57-.48-.78.39-.24.48.78Zm-1-1.54-.51-.75.37-.27c.17.25.35.5.52.77Zm-1.05-1.48-.13-.17-.45-.51.34-.31c.21.24.37.42.46.54l.14.17Zm-1.2-1.36-.63-.67.34-.32c.23.25.44.47.62.68ZM137,260l-.63-.67.33-.31.63.66Zm-1.26-1.34-.63-.66.34-.32.63.67Zm-1.26-1.33-.63-.66.33-.32.63.67ZM133.21,256l-.61-.65.15-.17.16-.16-.16.16.18-.15.61.65ZM132,254.64l-.63-.66.33-.32.63.67Zm-1.26-1.32-.63-.66.33-.32.63.66ZM129.42,252l-.63-.66.33-.31.63.66Zm-1.26-1.32-.63-.66.33-.31.63.66Zm-1.27-1.32-.63-.66.33-.32.63.66ZM125.63,248l-.63-.66.33-.32.63.66Zm-1.26-1.32-.64-.66.33-.32.63.66Zm-1.27-1.32-.63-.66.33-.32.63.66Zm-1.27-1.33-.63-.66.33-.31.63.66Zm-1.26-1.32-.63-.66.33-.31.63.66Zm-1.27-1.32-.63-.66.33-.31.63.66ZM118,240.1l-.64-.66.33-.32.64.66Zm-1.27-1.32-.63-.66.33-.32.63.66Zm-1.26-1.32-.63-.66.33-.32.63.66Zm-1.26-1.33-.64-.66.34-.31.63.66ZM113,234.81l-.63-.66.33-.32.63.67Zm-1.26-1.32-.63-.66.33-.32.63.66Zm-1.26-1.33-.63-.66.33-.31.63.66Zm-1.26-1.32-.63-.67.33-.31.63.66Zm-1.26-1.33-.63-.66.33-.32.63.67Zm-1.26-1.33-.63-.66.33-.32.63.67Zm-1.26-1.33-.63-.66.33-.32.63.67Zm-1.26-1.33-.62-.67.33-.31.63.67Zm-1.25-1.33-.63-.67.34-.32.62.67Zm-1.25-1.34-.62-.68.33-.31.62.67Zm-1.24-1.35-.62-.68.34-.31.61.68Zm-1.24-1.37-.6-.71.36-.29c.13.17.33.4.59.7ZM98,218.67l-.54-.75.37-.27.54.75ZM97,217.18l-.54-.74.36-.27.55.74Zm-1.08-1.48-.54-.74.36-.27.54.74Zm-1.08-1.48-.54-.74.37-.27.53.74Zm-1.08-1.48-.54-.74.37-.27.54.74Zm-1.08-1.48-.54-.74.37-.27L93,211Zm-1.08-1.48L91,209l.37-.27.54.74Zm-1.08-1.48-.54-.73.37-.27.52.71Zm-1.08-1.47-.54-.74.37-.27.54.74Zm-1.08-1.48-.54-.74.37-.27.54.74Zm-1.08-1.48-.54-.74.37-.27.54.74Zm-1.07-1.48-.54-.74.36-.27.54.74Zm-1.08-1.47-.54-.74.37-.27.53.74ZM84,199.44l-.54-.74.37-.27.54.74ZM82.92,198l-.54-.74.37-.27.54.74Zm-1.08-1.48-.54-.74.37-.27.54.74ZM80.76,195l-.54-.73.37-.27.54.74Zm-1.08-1.47-.54-.74.37-.27.54.74Zm-1.07-1.48-.54-.74.36-.27.54.74Zm-1.08-1.48-.54-.74.37-.27.53.74Zm-1.08-1.48-.54-.74.37-.27.54.74Zm-1.08-1.48-.54-.74.37-.26.54.73Zm-1.08-1.48-.54-.73.37-.27.54.74Zm-1.08-1.47-.54-.74.37-.27.54.74Zm-1.08-1.48-.54-.74.37-.27.54.74Zm-1.08-1.49-.54-.74.36-.27.55.75ZM70,180.21l-.54-.75.37-.27.54.75Z"/><path class="cls-1" d="M171.34,248.15l-.45-.11c.05-.18.12-.48.22-.89l.44.1C171.46,247.67,171.38,248,171.34,248.15Zm.42-1.79-.44-.1.21-.9.44.11Zm.42-1.79-.45-.1.21-.89.44.1Zm.41-1.78-.45-.1.2-.89.45.1ZM173,241l-.45-.1.2-.89.45.1Zm.4-1.78-.45-.1.2-.9.44.1Zm.39-1.79-.45-.1.19-.89.45.09Zm.38-1.79-.44-.1.19-.89.45.1Zm.39-1.79-.45-.09.19-.9.44.1Zm.37-1.79-.44-.09.18-.9.45.1Zm.37-1.79-.44-.09.18-.9.45.09Zm.37-1.79-.45-.09.18-.9.45.09Zm.36-1.8-.45-.09.18-.89.45.09Zm.36-1.79-.45-.09.18-.89.45.08Zm.35-1.79-.45-.09.18-.9.45.09Zm.35-1.8-.45-.09.17-.89.45.08Zm.34-1.8-.45-.08.17-.9.45.08Zm.34-1.79-.45-.09.16-.9.45.09Zm.33-1.8-.45-.08.16-.9.45.08Zm.32-1.8L178,214l.16-.9.45.08Zm.32-1.8-.45-.08.16-.9.45.08Zm.31-1.81-.45-.07.16-.9.45.07Zm.31-1.8-.45-.07.15-.91.45.08Zm.3-1.8-.45-.08.15-.9.45.08Zm.3-1.81-.45-.07.14-.9.45.07Zm.29-1.8-.45-.07.14-.91.45.07Zm.28-1.81-.45-.07.14-.9.45.07Zm.27-1.81-.45-.07.14-.9.45.07Zm.27-1.81-.45-.06.13-.91.45.07Zm.26-1.81-.45-.06.12-.91.46.06Zm.25-1.82-.45-.06.12-.91.45.07Zm.24-1.81-.45-.06.12-.91.45.06Zm.24-1.82-.45,0,.11-.91.45.06Zm.22-1.81-.45,0,.11-.91.45.06Zm.22-1.81-.46,0,.11-.91.45,0Zm.2-1.82-.45,0,.1-.91.45.05Zm.2-1.82-.46,0,.09-.91.46,0Zm.18-1.82-.46,0,.09-.91.45,0Zm.17-1.82-.46,0,.08-.91.46,0Zm.15-1.82-.45,0,.07-.91.46,0Zm.15-1.83-.46,0,.07-.91.45,0Zm.12-1.82-.45,0,.06-.91.45,0Zm.12-1.83-.46,0,.05-.92.46,0Zm.09-1.83-.46,0c0-.3,0-.61,0-.91l.46,0C183.9,170,183.88,170.27,183.87,170.57Zm.08-1.83h-.46l0-.91H184Zm.05-1.83h-.46c0-.3,0-.61,0-.91H184C184,166.3,184,166.61,184,166.91Zm0-1.83h-.45v-.91H184C184,164.47,184,164.78,184,165.08Zm-.45-1.83v-.91H184c0,.3,0,.61,0,.91Zm0-1.82,0-.91H184l0,.91Zm-.05-1.82,0-.91.46,0,0,.91Zm-.07-1.83c0-.3,0-.6,0-.91l.46,0c0,.3,0,.61,0,.91Zm-.09-1.82c0-.3,0-.61,0-.91l.46,0c0,.31,0,.61.05.92Zm-.11-1.82-.06-.91.46,0,.06.91Zm-.13-1.82c0-.3-.05-.61-.07-.91l.45,0c0,.31,0,.61.08.92ZM183,150.5c0-.3-.06-.6-.08-.91l.45,0c0,.3.06.61.08.91Zm-.17-1.81c0-.31-.07-.61-.1-.91l.46-.05.09.91Zm-.2-1.82c0-.3-.07-.6-.1-.9l.45-.06c0,.3.07.61.11.91Zm-.21-1.81-.12-.9.45-.06.12.9Zm-.24-1.81c0-.3-.08-.6-.13-.9l.45-.07c0,.3.09.6.13.91Zm-.26-1.81c0-.3-.09-.6-.14-.9l.45-.07c.05.3.1.6.14.91Zm-.28-1.8-.15-.9.45-.07.15.9Zm-.3-1.8c-.05-.3-.11-.6-.16-.9l.45-.08c0,.3.11.6.16.9Zm-.33-1.79c-.05-.3-.11-.6-.17-.9l.45-.09c.06.3.12.6.17.9Zm-.34-1.79-.18-.9.44-.09.19.9Zm-.37-1.79c-.07-.3-.13-.6-.19-.89l.44-.1c.07.29.13.59.2.89Zm-.39-1.78-.21-.89.45-.11c.07.3.13.6.2.9Zm-.42-1.78-.21-.89.44-.11c.07.3.14.59.22.89Zm-.43-1.77c-.08-.3-.16-.59-.23-.89l.44-.11c.08.29.15.59.23.89Zm-.47-1.77-.24-.88.44-.12c.08.29.17.59.24.88Zm-.48-1.76c-.09-.29-.17-.58-.25-.87l.43-.13c.09.29.17.58.26.88Zm-.51-1.75-.27-.87.44-.13c.09.28.18.58.26.87Zm-.54-1.74c-.09-.3-.19-.58-.28-.87l.44-.14c.09.28.18.58.28.87Zm-.56-1.74c-.1-.29-.2-.58-.29-.86l.43-.15c.09.29.19.57.29.87Zm-.59-1.72-.31-.86.43-.16.31.87Zm-.62-1.72-.32-.85.42-.16c.11.27.21.56.32.85Zm-.65-1.7-.34-.85.42-.17.34.85Zm-.69-1.69-.36-.84.42-.18.36.84Zm-.73-1.67c-.25-.54-.39-.82-.39-.82l.4-.21s.15.29.4.84Z"/><path class="cls-1" d="M305.23,141.81h-.64c-9.2.14-23.36-2.86-38.54-18-13.64-13.64-16-48.37-16-48.72l.91-.06c0,.34,2.37,34.73,15.77,48.13,14.95,14.95,28.86,17.91,37.89,17.77,9,.15,23-2.82,37.91-17.77,13.4-13.4,15.74-47.79,15.76-48.13l.91.06c0,.35-2.39,35.08-16,48.72C328.31,138.6,314.45,141.81,305.23,141.81Z"/><path class="cls-1" d="M305.16,149.42h-.58a48.44,48.44,0,0,1-12.05-1.54,76.68,76.68,0,0,1-27.81-13.26c-10.91-8.12-16.57-22.82-19.4-33.73A120.37,120.37,0,0,1,241.77,79l.91,0c0,.4,2.08,39.69,22.58,54.93A75.84,75.84,0,0,0,292.7,147a47.3,47.3,0,0,0,23.79,0,75.76,75.76,0,0,0,27.44-13.1c20.51-15.25,22.57-54.53,22.58-54.93l.92,0a121,121,0,0,1-3.56,21.89c-2.82,10.91-8.48,25.61-19.39,33.73a76.79,76.79,0,0,1-27.82,13.26A51.52,51.52,0,0,1,305.16,149.42Z"/><path class="cls-1" d="M369.78,80.78h-.46c0-.29,0-.45,0-.45h.46S369.79,80.48,369.78,80.78Z"/><path class="cls-1" d="M306.49,154.28H306v-.46h.91v.46Zm-3.79,0h-.38v-.46h.91v.46Zm-1.3,0c-.31,0-.61,0-.91,0v-.45l.91,0Zm6.4,0v-.45l.91,0,0,.45Zm-2.75,0h-.9v-.46h.92Zm-5.48-.07-.91-.06,0-.46.91.06Zm10.06,0,0-.46.91-.06,0,.46Zm-11.89-.14-.91-.09.05-.45.91.09Zm13.72,0,0-.45.9-.09.05.45Zm-15.54-.2-.91-.12.07-.45.9.12Zm17.36,0-.06-.45.9-.12.07.45Zm-19.17-.26-.91-.15.08-.45.9.15Zm21,0-.07-.45.9-.15.08.45Zm-22.79-.32-.89-.18.09-.45.89.18Zm24.6,0-.09-.45.89-.18.1.45Zm-26.39-.38-.89-.22.11-.44.88.21Zm28.18,0-.1-.45.88-.21.11.44Zm-30-.44-.88-.25.12-.44c.29.09.59.17.88.24Zm31.74,0-.12-.44.88-.24.12.44Zm-33.5-.5-.87-.27.14-.43.86.27Zm35.26,0-.13-.44q.43-.12.87-.27l.14.44Zm-37-.56-.87-.3.15-.43.86.3Zm38.75,0-.15-.43.86-.3.15.43Zm-40.48-.61-.86-.33.17-.43.85.33Zm42.2,0-.16-.43.85-.32.17.42Zm-43.91-.67-.84-.36.18-.41.84.35Zm45.62,0-.18-.42.84-.36.18.42Zm-47.3-.73-.83-.38.2-.41.82.38Zm49,0-.19-.42.82-.38.2.42Zm-50.63-.78-.82-.41.2-.41c.27.14.54.28.82.41Zm52.28,0-.2-.41.82-.41.2.41Zm-53.92-.83-.8-.44.22-.4.8.44Zm55.56,0-.22-.41.8-.43.22.4Zm-57.16-.88-.8-.47.24-.39.78.46Zm58.76,0-.22-.39.78-.46.23.39C334.52,146.56,334.25,146.71,334,146.86Zm-60.34-.93-.78-.48.25-.39.77.48Zm61.92,0-.24-.39.77-.48.25.38Zm-63.47-1-.76-.51.25-.38.76.51Zm65,0-.25-.38.75-.51.26.38Zm-66.54-1-.74-.53.26-.37.74.53Zm68.06,0-.27-.38c.26-.17.5-.35.75-.52l.26.37Zm-69.54-1.07-.73-.56.28-.36c.23.18.47.37.72.55Zm71,0-.27-.36.72-.55.28.36Zm-72.47-1.12-.72-.57.3-.36.7.58Zm73.92,0-.28-.36c.24-.19.48-.38.7-.57l.29.35C342.05,141.33,341.81,141.52,341.56,141.72Zm-75.34-1.17-.69-.6.3-.34.69.6Zm76.76,0-.3-.35.68-.59.31.34Zm-78.13-1.22c-.25-.22-.47-.43-.67-.63l.32-.33.66.63Zm79.5,0L344,139l.66-.62.32.33Zm-80.82-1.27c-.37-.37-.58-.61-.64-.68l.33-.3.63.66Zm82.14,0-.32-.32a8.76,8.76,0,0,0,.62-.66l.34.31C346.26,137.44,346,137.68,345.67,138.05Zm-83.47-1.21-.71-.59.3-.35.7.58Zm84.8,0-.29-.35.7-.58.29.35Zm-86.2-1.18c-.23-.2-.46-.4-.68-.61l.31-.34.67.61Zm87.6,0-.3-.34.67-.61.31.33Zm-88.95-1.24-.66-.64.33-.32.65.63Zm90.3,0-.32-.33c.22-.21.44-.42.65-.64l.32.33Zm-91.6-1.29-.63-.67.34-.31.62.66Zm92.9,0-.33-.32c.21-.21.41-.43.62-.66l.34.31Zm1.24-1.34-.34-.31.6-.68.34.3C352.7,131.31,352.49,131.54,352.29,131.77Zm-95.39,0-.6-.7.34-.29.6.68Zm96.59-1.4-.36-.29c.2-.23.39-.46.57-.7l.36.29Zm-97.79,0-.58-.72.36-.28.58.71ZM354.62,129l-.36-.28.55-.72.36.27C355,128.46,354.81,128.71,354.62,129Zm-100.06,0c-.19-.24-.37-.49-.56-.74l.37-.27c.18.25.36.49.55.73Zm101.15-1.45-.37-.27.52-.74.38.26Zm-102.25,0-.52-.75.37-.26.53.75ZM356.75,126l-.38-.26c.16-.25.33-.5.49-.76l.39.25Zm-104.33,0-.5-.77.38-.25.5.76Zm105.31-1.5-.38-.24c.16-.26.31-.52.47-.77l.39.23C358.05,123.92,357.9,124.18,357.73,124.44Zm-106.3,0-.48-.78.39-.24.48.78Zm107.25-1.52-.4-.22.45-.79.4.22Zm-108.19-.05L250,122l.4-.22.45.79Zm109.08-1.54-.4-.21.42-.81.41.21Zm-110-.06-.43-.81.41-.21.42.8Zm110.83-1.56-.41-.21.41-.81.41.2Zm-111.68-.06c-.13-.28-.27-.55-.4-.82l.41-.2c.13.27.26.54.4.81ZM361.22,118l-.41-.2c.13-.28.26-.55.38-.83l.42.19ZM247.94,118l-.39-.83.42-.19.38.83ZM362,116.35l-.42-.19.36-.83.42.18Zm-114.81-.07c-.12-.27-.25-.55-.37-.84l.42-.17c.12.27.24.55.37.83Zm115.53-1.61-.43-.18.35-.84.42.17C362.94,114.1,362.82,114.38,362.71,114.67Zm-116.25-.07c-.12-.28-.23-.57-.34-.85l.42-.17.34.85ZM363.39,113l-.43-.17c.11-.28.22-.57.32-.85l.43.16Zm-117.61-.07c-.11-.29-.22-.57-.32-.86l.43-.16c.1.29.21.57.32.86ZM364,111.25l-.43-.15.3-.86.43.15Zm-118.89-.07-.3-.86.43-.15.3.86Zm119.49-1.66-.43-.14c.09-.29.19-.58.28-.87l.44.14C364.82,108.94,364.73,109.23,364.63,109.52Zm-120.09-.07c-.1-.29-.19-.58-.29-.86l.44-.15c.09.29.19.58.28.87Zm120.66-1.67-.44-.14.27-.87.44.14ZM244,107.71l-.27-.87.44-.13c.08.29.17.58.26.87ZM365.73,106l-.44-.13c.08-.29.17-.58.25-.87l.44.12ZM243.45,106c-.09-.29-.17-.59-.25-.88l.44-.12c.08.29.16.58.25.87Zm122.77-1.69-.44-.12c.08-.3.16-.59.23-.88l.45.11ZM243,104.2l-.23-.89.44-.11c.08.29.16.58.23.88Zm123.73-1.7-.44-.12.22-.88.44.11C366.83,101.9,366.76,102.2,366.68,102.5Zm-124.19-.07c-.07-.3-.14-.6-.22-.89l.45-.11c.07.29.14.59.22.89Zm124.62-1.71-.44-.11c.07-.29.13-.59.2-.88l.45.1Zm-125-.07c-.06-.3-.13-.6-.2-.9l.45-.09c.06.29.13.59.2.88Zm125.45-1.72-.45-.09c.07-.3.13-.6.19-.9l.45.09C367.64,98.33,367.57,98.63,367.51,98.93Zm-125.84-.07c-.07-.3-.13-.6-.19-.9l.45-.09.18.9Zm126.21-1.72-.45-.09c.06-.3.11-.6.17-.9l.45.09C368,96.54,367.94,96.84,367.88,97.14ZM241.3,97.07c-.06-.31-.11-.6-.17-.9l.45-.09c.06.3.11.6.17.9Zm126.91-1.73-.45-.08c.06-.3.11-.6.16-.9l.45.08C368.32,94.73,368.27,95,368.21,95.34ZM241,95.27c-.05-.31-.11-.61-.16-.9l.45-.08c.05.3.11.6.16.9Zm127.55-1.74-.45-.07c0-.3.09-.6.14-.9l.45.07C368.61,92.93,368.57,93.23,368.52,93.53Zm-127.85-.07-.15-.9.46-.07c0,.3.09.6.14.9Zm128.12-1.74-.45-.06c0-.31.09-.61.13-.9l.45.06C368.88,91.11,368.84,91.42,368.79,91.72Zm-128.4-.07c0-.3-.09-.61-.12-.9l.45-.06q.06.44.12.9ZM369,89.91l-.46-.06.12-.9.45,0C369.11,89.3,369.08,89.6,369,89.91Zm-128.89-.07c0-.31-.08-.61-.11-.91l.45-.05c0,.29.07.59.11.9Zm129.1-1.75-.45,0,.09-.91.46.05C369.32,87.48,369.29,87.78,369.25,88.09ZM239.93,88c0-.31-.06-.62-.09-.91l.45,0c0,.3.06.6.1.91Zm129.51-1.75-.46,0c0-.32.06-.62.08-.91l.46,0C369.49,85.65,369.47,86,369.44,86.27ZM239.75,86.2c0-.32-.05-.62-.08-.92l.46,0c0,.29.05.59.08.91Zm129.84-1.76-.46,0c0-.32.05-.62.07-.91l.45,0C369.63,83.82,369.61,84.12,369.59,84.44Zm-130-.07c0-.32,0-.63-.06-.91l.45,0c0,.28,0,.59.07.91Zm130.11-1.76-.46,0c0-.34,0-.65,0-.91h.46C369.74,82,369.72,82.27,369.71,82.61Zm-130.23-.07c0-.34,0-.65,0-.92l.46,0c0,.27,0,.57,0,.92Z"/><path class="cls-1" d="M239.42,80.78c0-.3,0-.46,0-.46h.45s0,.16,0,.45Z"/><path class="cls-1" d="M469.9,273.79l-.38-.25.22-.35.39.25Zm.72-1.12-.38-.24.5-.77.38.25Zm1-1.53-.38-.25.5-.76.38.25Zm1-1.53-.39-.25.5-.77.38.25Zm1-1.45-.33-.31.62-.68.34.31Zm1.25-1.36-.34-.31.62-.67.34.31Zm1.23-1.35-.33-.31.61-.67.34.3Zm1.24-1.35-.34-.31.62-.68.34.31Zm1.24-1.35-.34-.31.62-.68.33.31Zm1.23-1.35-.34-.31.62-.68.34.31Zm1.24-1.35-.34-.31.61-.68.34.31Zm1.23-1.35-.34-.31.62-.68.34.31Zm1.23-1.36-.34-.3.62-.68.34.31Zm1.23-1.35-.33-.3.61-.68.34.31Zm1.24-1.35-.34-.31.62-.67.33.31Zm1.23-1.35-.34-.31.62-.67.34.31Zm1.23-1.35-.33-.31.61-.67.34.3Zm1.23-1.35-.33-.31.61-.68.34.31Zm1.24-1.35-.34-.31.61-.68.34.31Zm1.23-1.36-.34-.31.61-.67.34.31Zm1.23-1.35-.34-.31.62-.68.33.31Zm1.23-1.36-.34-.3.62-.68.33.31Zm1.23-1.35-.34-.31.61-.67.34.31Zm1.23-1.35-.34-.31.61-.68.34.31Zm1.22-1.36-.33-.3.61-.68.34.3Zm1.23-1.35-.34-.31.62-.68.34.31Zm1.23-1.36-.34-.31.61-.67.34.3ZM502,237l-.34-.3.61-.68.34.3Zm1.22-1.35-.34-.31.61-.68.34.31Zm1.22-1.36-.33-.31.61-.68.34.31Zm1.23-1.36-.34-.31L506,232l.34.3Zm1.22-1.37-.34-.3.59-.67.19.14.16.17Zm1.22-1.36-.34-.31.61-.68.34.31Zm1.22-1.37-.34-.3.6-.69.34.3Zm1.2-1.38-.35-.3c.2-.22.39-.45.59-.69l.35.29Zm1.18-1.41-.36-.29c.19-.23.39-.46.58-.71l.36.29Zm1.15-1.42-.36-.29.57-.71.36.28Zm1.13-1.44-.36-.28.56-.73.36.28Zm1.12-1.45-.36-.28c.18-.24.37-.48.55-.73l.37.28Zm1.11-1.46-.37-.28.55-.73.37.28Zm1.09-1.47-.36-.27.54-.73.37.27Zm1.09-1.47-.36-.27.54-.74.36.27Zm1.08-1.48-.37-.26.54-.74.37.26Zm1.08-1.48-.37-.26.53-.75.37.27Zm1.07-1.48-.38-.27.54-.74.37.26Zm1.06-1.49-.37-.27.53-.74.37.26Zm1.06-1.49-.38-.27.53-.75.37.27Zm1-1.5-.37-.26.52-.75.38.26Zm1.05-1.5-.37-.26.52-.75.38.26Zm1-1.5-.38-.26.52-.75.38.26Zm1-1.5-.38-.26.52-.76.38.26Zm1-1.51-.38-.26.51-.73.2.11.17.15Zm1-1.51-.38-.26.52-.75.37.26Zm1-1.51-.38-.25.5-.73.21.1.17.15Zm1-1.51-.38-.26.52-.75.37.25Zm1-1.51-.38-.26.51-.76.38.26Zm1-1.52-.38-.25.52-.76.37.25Zm1-1.51-.38-.26.51-.76.38.26Zm1-1.52-.38-.26.51-.76.38.26Zm1-1.52-.37-.26.5-.76.38.26Zm1-1.53-.38-.25.51-.76.38.25Zm1-1.52-.38-.25.5-.76.38.25Zm1-1.53-.38-.25.5-.76.38.25Zm1-1.53-.38-.25.5-.76.38.25Zm1-1.53-.38-.25.5-.77.38.25Z"/><path class="cls-1" d="M465.11,270.43l-.43-.1c0-.07,0-.07.42-.88l.41.21C465.26,270.12,465.12,270.41,465.11,270.43Zm.82-1.58-.4-.22c.14-.24.28-.52.44-.8l.4.22C466.21,268.33,466.07,268.6,465.93,268.85Zm.88-1.6-.39-.22c.14-.26.3-.53.45-.8l.4.23Zm.92-1.57-.39-.24.48-.78.39.24Zm1-1.54-.38-.25.52-.77.37.27Zm1.05-1.48-.36-.28.14-.17c.09-.12.25-.3.47-.54l.34.31-.45.51ZM471,261.3l-.34-.31.63-.68.33.32C471.35,260.87,471.14,261.09,471,261.3ZM472.2,260l-.33-.32.63-.66.33.31Zm1.26-1.34-.33-.31.63-.67.33.32Zm1.26-1.33-.33-.31.63-.67.33.32ZM476,256l-.33-.32.62-.65.34.3Zm1.26-1.33-.33-.31.63-.67.34.32Zm1.27-1.32-.33-.32.63-.66.33.32Zm1.26-1.33-.33-.31.63-.66.33.31Zm1.26-1.32-.33-.31.64-.66.33.31Zm1.27-1.32L482,249l.63-.66.33.32Zm1.26-1.32-.33-.32.64-.66.33.32Zm1.27-1.32-.33-.32.63-.66.33.32Zm1.26-1.32-.33-.32.64-.66.33.31Zm1.27-1.33-.33-.31.63-.66.33.31Zm1.26-1.32-.33-.31.64-.66.33.31Zm1.27-1.32-.33-.31.63-.66.33.31Zm1.27-1.32-.33-.32.63-.66.33.32Zm1.26-1.32-.33-.32.63-.66.33.32Zm1.26-1.32-.33-.32.64-.66.33.32Zm1.27-1.33-.33-.31.63-.66.33.31Zm1.26-1.32-.33-.31.63-.67.33.32Zm1.26-1.32-.33-.32.63-.66.33.32Zm1.27-1.33-.34-.31.64-.66.33.31Zm1.26-1.32-.33-.32.63-.66.33.31Zm1.26-1.33-.33-.31.63-.67.33.32Zm1.26-1.33-.33-.31.62-.67.34.32Zm1.25-1.33-.33-.31.63-.67.33.32Zm1.26-1.33-.33-.31.63-.67.33.31Zm1.25-1.33-.33-.32.63-.67.33.32Zm1.25-1.34-.33-.32.62-.67.34.31Zm1.25-1.35-.34-.31.62-.68.34.31Zm1.23-1.37-.34-.3.59-.7.35.28C510.48,219.59,510.27,219.83,510,220.13Zm1.15-1.46-.36-.27.54-.75.37.27Zm1.09-1.49-.37-.27.54-.74.37.27Zm1.08-1.48-.37-.27.54-.74.37.27Zm1.08-1.48L514,214l.54-.74.37.27Zm1.08-1.48-.37-.27.54-.74.37.27Zm1.08-1.48-.37-.27.54-.74.37.27Zm1.08-1.48-.37-.27.54-.74.36.27Zm1.1-1.51-.21-.1-.18-.13.53-.74.37.27Zm1-1.44-.37-.27.54-.74.37.27Zm1.08-1.48-.37-.27.54-.74.37.27Zm1.08-1.48-.37-.27.54-.74.37.27Zm1.08-1.48-.37-.27.54-.74.37.27Zm1.08-1.48-.37-.26.54-.74.37.27Zm1.08-1.47-.37-.27.54-.74.37.27Zm1.08-1.48-.37-.27.54-.74.37.27Zm1.07-1.48-.37-.27.54-.74.37.27Zm1.08-1.48-.37-.27.54-.73.37.27Zm1.08-1.47-.37-.27.54-.74.37.27Zm1.08-1.48-.37-.27.54-.74.37.27Zm1.08-1.48-.37-.27.54-.74.37.27Zm1.08-1.48-.37-.27.54-.74.37.27Zm1.08-1.48-.37-.27.54-.74.37.27Zm1.08-1.48-.37-.26.54-.74.37.27Zm1.08-1.47-.37-.27.54-.74.37.27Zm1.07-1.48-.36-.27.54-.74.37.27Zm1.09-1.49-.37-.26.54-.75.37.27Zm1.08-1.48-.37-.27.55-.75.37.27Z"/><path class="cls-1" d="M437.86,248.15c-.05-.18-.12-.48-.22-.9l.45-.1c.09.41.17.71.21.89Zm-.43-1.79-.21-.89.45-.11.2.89Zm-.41-1.79-.21-.89.45-.1.2.89Zm-.41-1.78-.2-.89.44-.1.2.89ZM436.2,241l-.19-.89.44-.1.2.89Zm-.39-1.78-.2-.9.45-.1.19.9Zm-.39-1.79-.2-.9.45-.09.19.89Zm-.39-1.79-.19-.89.45-.1.19.89Zm-.38-1.79-.19-.89.45-.1.19.9Zm-.38-1.79-.18-.89.44-.1.19.9Zm-.37-1.79-.18-.9.44-.09.19.9Zm-.37-1.79-.18-.9.45-.09.18.9Zm-.36-1.8-.18-.89.45-.09.18.89Zm-.36-1.79-.17-.9.45-.08.17.89Zm-.35-1.79-.17-.9.45-.09.17.9Zm-.34-1.8-.18-.9.45-.08.17.89Zm-.35-1.8-.16-.9.44-.08.17.9Zm-.33-1.79-.17-.9.45-.09.17.9Zm-.33-1.8-.17-.9.45-.08.17.9Zm-.33-1.8-.16-.9.45-.08.16.9Zm-.32-1.8-.15-.9.45-.08.15.9Zm-.31-1.81-.16-.9.45-.07.16.9Zm-.31-1.8-.15-.9.45-.08.15.91Zm-.3-1.8-.15-.9.45-.08.15.9Zm-.3-1.81-.14-.9.45-.07.15.9Zm-.28-1.8-.15-.91.46-.07.14.91Zm-.29-1.81-.13-.9.45-.07.14.9Zm-.27-1.81-.13-.9.45-.07.13.9Zm-.27-1.81L428,197l.46-.07.13.91Zm-.26-1.81-.12-.91.45-.06.13.91Zm-.25-1.82-.12-.9.45-.06.12.9Zm-.24-1.81-.12-.91.45-.06.12.91Zm-.23-1.82-.12-.9.46-.06.11.91Zm-.23-1.81-.11-.9.46-.06.1.91Zm-.21-1.81-.11-.91.46,0,.1.91Zm-.21-1.82-.1-.91.46,0,.1.9Zm-.19-1.82-.09-.91.45,0,.09.91Zm-.18-1.82-.09-.91.46,0,.08.91ZM426,179.7l-.08-.91.45,0,.08.91Zm-.16-1.82-.07-.91.45,0,.08.91Zm-.14-1.83-.07-.91.46,0,.06.91Zm-.13-1.82-.06-.91.46,0,.06.91Zm-.11-1.83-.05-.91.45,0,.05.92Zm-.1-1.83c0-.3,0-.61,0-.91l.46,0c0,.3,0,.61,0,.91Zm-.07-1.83,0-.91h.45l0,.91Zm-.06-1.83c0-.3,0-.61,0-.91h.46c0,.3,0,.61,0,.91Zm0-1.83c0-.3,0-.61,0-.91h.46c0,.3,0,.6,0,.91Zm.45-1.83h-.46c0-.3,0-.61,0-.91h.46C425.61,162.65,425.61,163,425.61,163.25Zm0-1.82h-.46l0-.91h.45Zm.05-1.82-.46,0c0-.3,0-.61,0-.91l.45,0Zm.07-1.83-.46,0c0-.3,0-.61,0-.91l.45,0C425.78,157.18,425.76,157.48,425.75,157.78Zm.09-1.82-.46,0,.06-.92.45,0C425.87,155.35,425.86,155.66,425.84,156Zm.11-1.82-.46,0c0-.31.05-.61.07-.91l.45,0Zm.13-1.82-.45,0c0-.31,0-.61.07-.92l.46,0C426.13,151.71,426.11,152,426.08,152.32Zm.15-1.82-.45,0c0-.3.05-.61.08-.91l.46,0Zm.18-1.81-.46-.05c0-.3.07-.61.1-.91l.45.05Zm.19-1.82-.45-.05c0-.3.07-.61.1-.91l.46.06C426.67,146.27,426.64,146.57,426.6,146.87Zm.22-1.81-.46-.06.12-.9.45.06C426.89,144.46,426.86,144.76,426.82,145.06Zm.23-1.81-.45-.06c0-.31.09-.61.13-.91l.45.07C427.14,142.65,427.1,143,427.05,143.25Zm.26-1.81-.45-.06c.05-.31.09-.61.14-.91l.45.07C427.4,140.84,427.36,141.14,427.31,141.44Zm.28-1.8-.45-.07.15-.9.45.07Zm.31-1.8-.45-.08c.05-.3.1-.6.16-.9l.44.08Zm.32-1.79-.45-.09c.06-.3.11-.6.17-.9l.45.09C428.33,135.45,428.28,135.75,428.22,136.05Zm.35-1.79-.45-.09.18-.9.45.09Zm.36-1.79-.44-.1c.06-.3.13-.6.19-.89l.45.1C429.06,131.87,429,132.17,428.93,132.47Zm.4-1.78-.45-.1.21-.9.44.11C429.46,130.09,429.39,130.39,429.33,130.69Zm.41-1.78-.44-.11.21-.89.45.11C429.88,128.32,429.81,128.61,429.74,128.91Zm.44-1.77-.44-.11c.07-.3.15-.6.22-.89l.45.11C430.33,126.55,430.25,126.84,430.18,127.14Zm.46-1.77-.44-.12.24-.88.44.12Zm.49-1.76-.44-.12c.08-.3.17-.59.25-.88l.44.13C431.29,123,431.21,123.32,431.13,123.61Zm.51-1.75-.44-.13c.09-.29.18-.59.27-.87l.43.13C431.81,121.28,431.73,121.57,431.64,121.86Zm.53-1.74-.43-.14c.09-.29.18-.59.28-.87l.43.14C432.36,119.54,432.27,119.82,432.17,120.12Zm.57-1.74-.44-.14c.1-.3.2-.58.3-.87l.43.15C432.93,117.8,432.83,118.09,432.74,118.38Zm.59-1.72-.43-.15.3-.87.43.16C433.53,116.08,433.43,116.36,433.33,116.66Zm.62-1.72-.43-.16.32-.85.43.16C434.16,114.36,434.06,114.65,434,114.94Zm.65-1.7-.43-.17c.12-.3.24-.58.34-.85l.43.17Zm.69-1.69-.42-.18.36-.84.42.18Zm.73-1.67-.42-.19.4-.84.41.21S436.27,109.34,436,109.88Z"/><path class="cls-1" d="M304.6,99.52c-28.51-.31-53-14-53.21-14.18l.46-.8c.24.14,24.5,13.76,52.75,14.06,28.25-.3,52.51-13.92,52.75-14.06l.45.8C357.56,85.48,333.1,99.21,304.6,99.52Z"/><path class="cls-1" d="M304.6,101.51h-.45v-.45h.91v.45Zm-1.36,0-.92,0,0-.46.91,0Zm2.75,0V101l.9,0,0,.46Zm-4.58-.06-.92,0,0-.45.91,0Zm6.41,0,0-.46.92,0,0,.45Zm-8.24-.1-.92-.06,0-.46.91.06Zm10.06,0,0-.46.9-.06,0,.46Zm-11.89-.13-.91-.08,0-.46.91.08Zm13.72,0,0-.45.91-.08,0,.45ZM295.93,101l-.91-.1.05-.45.9.09Zm17.37,0-.05-.46.91-.09,0,.45Zm-19.2-.2-.9-.11.05-.46.91.11Zm21,0-.06-.46.91-.11,0,.45Zm-22.83-.23-.91-.13.07-.45.9.12Zm24.64,0-.06-.45.9-.13.07.45Zm-26.45-.26-.91-.14.07-.45.91.14Zm28.26,0-.06-.45.9-.14.07.45ZM288.67,100l-.9-.16.08-.45.89.16Zm31.88,0-.07-.45.89-.16.08.45Zm-33.68-.32-.9-.17.08-.45.9.17Zm35.49,0-.09-.45.9-.17.08.45Zm-37.29-.34-.9-.19.1-.45.89.19Zm39.08,0-.09-.45.89-.18.1.44ZM283.28,99l-.9-.2.1-.45.89.2Zm42.66,0-.09-.45.88-.19.11.44Zm-44.45-.4-.89-.21.11-.45.89.22Zm46.24,0-.11-.44.89-.21.11.44Zm-48-.42-.88-.23.11-.44.88.22Zm49.8,0-.11-.44.88-.23.11.44Zm-51.57-.45-.88-.24.12-.44.88.23Zm53.34,0-.12-.44L332,97l.12.44Zm-55.11-.48-.88-.25.13-.44.88.25Zm56.87,0-.12-.44.88-.25.13.44Zm-58.62-.5-.88-.27.13-.43.88.26Zm60.38,0-.13-.44.88-.26.13.44Zm-62.13-.53-.88-.27.14-.44.87.28Zm63.88,0-.13-.44.87-.28.14.44Zm-65.63-.56-.87-.29.15-.43.86.29Zm67.38,0-.15-.43.87-.29.15.44ZM269.19,95l-.87-.3.15-.43.87.3ZM340,95l-.15-.43.86-.3.16.43Zm-72.57-.6-.86-.31.16-.43.85.31Zm74.3,0L341.6,94l.86-.31.16.43Zm-76-.62-.86-.33.17-.42.85.32Zm77.74,0-.16-.43.85-.32.16.42ZM264,93.1l-.85-.33.17-.43.85.34Zm81.16,0-.17-.42.85-.34.17.43Zm-82.86-.67-.85-.34.18-.43.84.35Zm84.56,0-.17-.42.84-.35.18.43Zm-86.25-.69-.84-.36.18-.42.84.36Zm87.94,0-.18-.42.84-.36.18.42ZM259,91l-.84-.37.19-.41.83.37Zm91.3,0-.18-.41.83-.38.19.42Zm-93-.74-.83-.38.2-.42.83.39Zm94.65,0-.19-.41.83-.39.19.42Zm-96.31-.77-.82-.39.2-.42.82.4Zm98,0L353.4,89l.82-.4.2.41ZM254,88.66l-.82-.42.21-.4.81.41Zm101.26,0-.2-.41.81-.42.21.41Zm-102.9-.83-.81-.45.23-.39.8.43Zm104.53,0-.21-.4.8-.44.23.4Z"/><path class="cls-1" d="M306.24,532.8h-.92v-.45h.92Zm-1.84,0h-.91v-.45h.88Zm-1.83,0h-.92v-.45h.92Zm-1.83,0h-.92v-.45h.92Zm7.34,0h-.92v-.45h.92Zm.92,0v-.45h.91v.45Zm-10.09,0H298v-.45h.92Zm11.93,0v-.45h.91v.45Zm-13.76,0h-.92v-.46h.92Zm15.59,0v-.46h.91v.46Zm-17.42,0h-.91v-.46h.91Zm19.25,0v-.46h.92v.46Zm-21.08,0h-.92v-.46h.92Zm22.92,0v-.46h.91v.46Zm-24.76,0h-.91v-.46h.91Zm26.59,0v-.46h.92v.46Zm-28.42,0h-.92v-.46h.92Zm30.25,0v-.46h.92v.46Zm-32.08,0H287v-.45h.92Zm33.92,0v-.45h.91v.45Zm-35.76,0h-.91v-.46h.92Zm37.59,0v-.46h.92v.46Zm-39.42,0h-.92v-.46h.92Zm41.25,0v-.46h.92v.46Zm-43.08,0h-.92v-.46h.92Zm44.92,0v-.46h.91v.46Zm-46.76,0h-.91v-.45h.91Zm48.59,0v-.45h.92v.46Zm-50.42,0h-.91v-.46h.91Zm52.25,0v-.46h.92v.46Zm-54.08,0H276v-.46h.92Zm55.92,0v-.46h.91v.46Zm-57.76,0h-.91v-.45h.91Zm59.6,0v-.45h.91v.46Zm-61.43,0h-.92v-.46h.92Zm63.25,0v-.46h.92v.46Zm-65.08,0h-.92v-.45h.92Zm66.92,0v-.45h.91v.46Zm-68.76,0h-.9v-.46h.9Zm70.59,0v-.46h.92v.46Zm-72.42,0h-.9l0-.23,0-.22h.9Zm74.26,0v-.45h.92v.46Zm-76.09,0H265v-.46h.92Zm77.94,0,0-.23,0-.23h.89v.45Zm-79.78,0h-.92v-.46h.91Zm81.59,0v-.46h.92v.46Zm-83.42,0h-.92v-.45h.92Zm85.26,0v-.46h.91v.46Zm-87.1,0h-.88l0-.23,0-.23h.89Zm88.93,0v-.45h.92v.46Zm-90.76,0h-.92v-.46h.91Zm92.59,0v-.46h.92v.46Zm-94.42,0h-.92v-.46h.92Zm96.26,0v-.46h.91v.46Zm-98.1,0H254v-.46h.91Zm99.93,0v-.46h.92v.46Zm-101.76,0h-.92v-.46h.92Zm103.6,0v-.46h.92v.45Zm-105.44,0h-.91v-.46h.92Zm107.27,0v-.46h.92v.46Zm-109.1,0h-.92v-.46h.92Zm110.94,0v-.46h.92v.46Zm-112.78,0h-.92v-.46h.92Zm114.61,0v-.45l.91,0v.46Zm-192.56,0v-.46h.93v.46Zm268.67,0h-.92v-.46h.92Zm-192.56,0-.91,0v-.45h.91Zm-74.27,0v-.46h.92v.46Zm265,0h-.92v-.46h.92Zm-263.16,0v-.46h.91v.46Zm261.32,0h-.92v-.46h.92Zm-70.6,0v-.46h.92v.46Zm-188.89,0v-.46h.92v.46Zm257.65,0h-.91v-.46h.92Zm-255.81,0v-.46h.91v.46Zm254,0H430v-.46H431Zm-187,0H243v-.46h.92Zm-65.06,0,0-.46h.92v.46Zm250.27,0h-.91v-.45h.92Zm-248.45,0,0-.45h.91v.46Zm246.62,0h-.92v-.46h.92Zm-61.43,0v-.46h.91v.46Zm-183.36,0,0-.46h.92v.45Zm243,0h-.91v-.46h.92Zm-183.37,0h-.92v-.45h.91Zm-57.74,0,0-.46h.91v.46Zm239.28,0h-.92v-.46h.92Zm-142.11,0v0Zm-95.34,0,0-.46h.92v.45Zm93.51,0v0Zm142.11,0h-.92v-.46h.92Zm-54.1,0v-.46h.92v.46Zm-89.85,0v0Zm-89.86,0v-.46h.92v.46Zm232,0H419v-.46h.91Zm-179.7,0h-.92v-.46h.92Zm-50.43,0v-.46h.92v.45Zm228.3,0h-.92v-.46h.92Zm-226.47,0v-.46h.92v.46Zm177.88,0v-.46h.92v.46Zm46.75,0h-.91v-.46h.92Zm-222.79,0v-.46h.91v.45Zm44.92,0h-.91v-.46h.91Zm176,0h-.91v-.46h.92Zm-219.13,0v-.46h.92v.46Zm176,0v-.46h.91v.46Zm41.26,0h-.91v-.46h.92Zm-143.94,0v0Zm-71.52,0v-.46h.92v.46Zm39.42,0h-.92v-.46h.92Zm174.2,0h-.91v-.45h.91Zm-143.94,0v0Zm-67.85,0v-.45h.92v.46Zm174.2,0v-.46h.92v.46Zm35.76,0H408v-.46h.92Zm-208.13,0v-.46h.92v.46Zm33.93,0h-.92v-.46h.92Zm172.36,0h-.91v-.46h.92Zm-204.45,0v-.46h.91v.45Zm172.39,0,0-.46h.91v.45Zm30.23,0h-.92v-.45h.92Zm-172.37,0H232v-.46h.91Zm-28.42,0v-.45h.91v.46Zm199,0h-.92v-.46h.92Zm-26.59,0v-.46h.92v.46Zm-170.54,0v-.46h.91v.46Zm24.76,0h-.9l0-.46h.92Zm170.53,0h-.92v-.46h.92Zm-193.46,0v-.46h.92v.46Zm170.55,0v-.46h.92v.46Zm21.07,0h-.91v-.46h.91Zm-170.52,0h-.92v-.45h.92Zm-19.26,0v-.46h.92v.45Zm188,0H397V532h.92Zm-17.41,0v-.45h.91v.46Zm-168.7,0V532h.91v.46Zm184.28,0h-.92V532h.92Zm-168.7,0h-.91V532h.91Zm-13.75,0V532h.92v.46Zm168.7,0V532h.92v.46Zm-156.78,0h-.91V532h.92Zm168.7,0h-.92V532h.92Zm-178.79,0V532h.92v.46Zm177,0h-.91V532h.92Zm-8.25,0V532h.92v.46Zm-160.44,0h-.92V532h.92Zm-6.42,0V532h.92v.46Zm168.7,0V532h.91v.46Zm4.58,0h-.92V532h.92Zm-1.83,0h-.92V532h.92Zm-166.87,0H221V532h.91Zm-1.83,0h-.92V532h.92Zm39.43,0v0Z"/><path class="cls-1" d="M306.24,527.78h-.92v-.46h.92Zm-1.84,0h-.91v-.46h.88Zm-1.83,0h-.92v-.46h.92Zm5.51,0h-.92v-.46h.92Zm-7.34,0h-.92v-.46h.92Zm8.26,0v-.46h.91v.45Zm-10.09,0H298v-.45h.92Zm11.93,0v-.45h.91v.45Zm1.83,0v-.45h.91v.45Zm-15.59,0h-.92v-.45h.92Zm-1.83,0h-.91v-.46h.91Zm19.25,0v-.46h.92v.46Zm-21.08,0h-.92v-.46h.92Zm22.92,0v-.46h.91v.46Zm-24.76,0h-.91v-.46h.91Zm26.59,0v-.46h.92v.46Zm-28.42,0h-.92v-.46h.92Zm30.25,0v-.46h.92v.46Zm-32.08,0H287v-.46h.92Zm33.92,0v-.46h.91v.45Zm-35.76,0h-.91v-.45h.92Zm37.59,0v-.45h.92v.46Zm-39.42,0h-.92v-.46h.92Zm41.25,0v-.46h.92v.46Zm-43.08,0h-.92v-.46h.92Zm44.92,0v-.46h.91v.46Zm-46.76,0h-.91v-.46h.91Zm48.59,0v-.46h.92v.45Zm-50.42,0h-.91v-.46h.91Zm52.25,0v-.46h.92v.46Zm-54.08,0H276v-.46h.92Zm55.92,0v-.46h.91v.46Zm-57.76,0h-.91v-.45h.91Zm59.6,0v-.45h.91v.46Zm-61.43,0h-.92v-.46h.92Zm63.25,0v-.46h.92v.46Zm-65.08,0h-.92v-.46h.92Zm66.92,0v-.46h.91v.46Zm-68.76,0h-.9v-.46h.9Zm70.59,0v-.46h.92v.46Zm-72.42,0h-.9l0-.22,0-.23h.9Zm74.26,0v-.45h.92v.46Zm-76.09,0H265v-.46h.92Zm77.94,0,0-.23,0-.23h.89v.46Zm-79.78,0h-.92v-.46h.91Zm81.59,0v-.46h.92v.46Zm-83.42,0h-.92v-.45h.92Zm85.26,0v-.45h.91v.46Zm-87.1,0h-.88l0-.23,0-.23h.89Zm88.93,0v-.46h.92v.46Zm-90.76,0h-.92v-.46h.91Zm92.59,0v-.46h.92v.46Zm-94.42,0h-.92v-.46h.92Zm96.26,0v-.46h.91v.46Zm-98.1,0H254v-.46h.91Zm99.93,0v-.46h.92v.46Zm-101.76,0h-.92v-.45h.92Zm103.6,0v-.45h.92v.46Zm-105.44,0h-.91v-.46h.92Zm107.27,0v-.46h.92v.46Zm-109.1,0h-.92v-.46h.92Zm110.94,0v-.46h.92v.46Zm-112.78,0h-.92v-.46h.92Zm114.61,0v-.46l.91,0v.46Zm-192.56,0v-.45h.93v.46Zm268.67,0h-.92v-.46h.92Zm-192.56,0h-.91v-.46h.91Zm-74.27,0v-.46h.92v.46Zm265,0h-.92v-.46h.92Zm-263.16,0v-.46h.91v.46Zm261.32,0h-.92v-.46h.92Zm-70.6,0v-.45l.92,0v.46Zm-188.89,0v-.46h.92v.46Zm257.65,0h-.91v-.46h.92Zm-255.81,0v-.46h.91v.45Zm254,0H430v-.46H431Zm-187,0H243v-.46h.92Zm-65.06,0,0-.46h.92v.46Zm250.27,0h-.91v-.45h.92Zm-248.45,0,0-.45h.91v.46Zm246.62,0h-.92v-.46h.92Zm-61.43,0v-.46h.91v.46Zm-183.36,0,0-.46h.92v.46Zm243,0h-.91v-.45h.92Zm-183.37,0h-.92v-.46h.91Zm-57.74,0,0-.45h.91v.46Zm239.28,0h-.92v-.46h.92Zm-142.11,0v0Zm-95.34,0,0-.46h.92v.45Zm93.51,0v0Zm142.11,0h-.92v-.46h.92Zm-54.1,0v-.45h.92v.46Zm-89.85,0v0Zm-89.86,0v-.46h.92v.46Zm232,0H419v-.46h.91Zm-179.7,0h-.92v-.46h.92Zm-50.43,0v-.46h.92v.45Zm228.3,0h-.92v-.46h.92Zm-226.47,0v-.46h.92v.46Zm177.88,0v-.46h.92v.46Zm46.75,0h-.91v-.46h.92Zm-222.79,0v-.46h.91v.46Zm44.92,0h-.91V527h.91Zm176,0h-.91v-.45h.92Zm-219.13,0v-.45h.92v.46Zm176,0V527h.91v.46Zm41.26,0h-.91V527h.92Zm-143.94,0v0Zm-71.52,0V527h.92v.46Zm39.42,0h-.92V527h.92Zm174.2,0h-.91V527h.91Zm-143.94,0v0Zm-67.85,0V527h.92v.45Zm174.2,0V527h.92v.46Zm35.76,0H408V527h.92Zm-208.13,0V527h.92v.46Zm33.93,0h-.92V527h.92Zm172.36,0h-.91V527h.92Zm-204.45,0V527h.91v.46Zm172.39,0,0-.46h.91v.45Zm30.23,0h-.92V527h.92Zm-172.37,0H232V527h.91Zm-28.42,0V527h.91v.46Zm199,0h-.92V527h.92Zm-26.59,0V527h.92v.46Zm-170.54,0V527h.91v.46Zm24.76,0h-.9l0-.46h.92Zm170.53,0h-.92V527h.92Zm-193.46,0V527h.92v.46Zm170.55,0V527h.92v.46Zm21.07,0h-.91V527h.91Zm-170.52,0h-.92V527h.92Zm-19.26,0V527h.92v.46Zm188,0H397V527h.92Zm-17.41,0V527h.91v.45Zm-168.7,0V527h.91v.45Zm184.28,0h-.92V527h.92Zm-168.7,0h-.91V527h.91Zm-13.75,0V527h.92v.46Zm168.7,0V527h.92v.46Zm-156.78,0h-.91V527h.92Zm168.7,0h-.92V527h.92Zm-178.79,0V527h.92v.46Zm177,0h-.91V527h.92Zm-8.25,0V527h.92v.46Zm-160.44,0h-.92V527h.92Zm-6.42,0V527h.92v.46Zm168.7,0V527h.91v.46Zm4.58,0h-.92V527h.92Zm-1.83,0h-.92V527h.92Zm-166.87,0H221V527h.91Zm-1.83,0h-.92V527h.92Zm39.43,0v0Z"/></g><path id="borde" class="cls-1" d="M358.72,75,367,79s10,5.39,17.22,8.26,50.95,19,58.48,25.83,77.5,53.82,85.4,58.12S548.52,187,548.52,187s-13.64,26.55-24.4,39.83S474.25,277,474.25,277a162.26,162.26,0,0,0-16.51-11.13c-7.17-3.94-19.61-17.58-19.61-17.58v23l.42,265.82s-1.44,0-5.37,0c-2,0-4.56,0-7.91,0-7.4,0-29.89-.58-48.54-.58-6.66,0-12.84.07-17.65.26-6.1.24-14.19.32-22.26.32-16.14,0-32.22-.32-32.22-.32s-16.08.32-32.23.32c-8.07,0-16.15-.08-22.25-.32-4.82-.19-11-.26-17.77-.26-18.84,0-41.69.55-49.09.58-3.35,0-5.94,0-7.9,0-3.94,0-5.37,0-5.37,0l1.07-265.82v-23S158.63,262,151.45,265.89A161.61,161.61,0,0,0,135,277s-39.11-37-49.88-50.23S60.68,187,60.68,187s12.55-11.48,20.45-15.79,77.85-51.3,85.39-58.12,51.31-23,58.48-25.83S242.22,79,242.22,79L250.48,75S280,92.6,304.6,92.6,358.72,75,358.72,75m-.05-1-.42.25c-.29.18-29.62,17.45-53.65,17.45s-53.36-17.27-53.66-17.45l-.42-.25-.44.21-8.25,4h0c-.1,0-10.08,5.39-17.13,8.21l-5.22,2c-14.06,5.4-47,18-53.53,24-3.86,3.49-24.47,17.75-42.46,29.93-20.66,14-39,26-42.76,28.07-7.9,4.31-20.12,15.44-20.63,15.92l-.52.47.32.62c.14.26,13.8,26.79,24.5,40s49.57,49.95,50,50.32l.56.54.62-.48a163,163,0,0,1,16.39-11c5.77-3.18,14.65-12.25,18.26-16.07v20.65L169.07,537.1v.9l.91,0h13.29c2.62,0,7.1-.09,12.78-.18,10.18-.17,24.13-.4,36.3-.4,7.39,0,13.36.08,17.73.26,5.41.21,12.91.32,22.29.32,15.73,0,31.6-.31,32.23-.32s16.49.32,32.22.32c9.38,0,16.88-.11,22.29-.32,4.37-.18,10.3-.26,17.62-.26,12,0,25.76.23,35.79.4,5.65.09,10.12.16,12.75.18h13.29l.9,0v-.9L439,271.28V250.63c3.61,3.82,12.5,12.89,18.26,16.07a161.73,161.73,0,0,1,16.39,11l.62.48.57-.54c.39-.37,39.27-37.15,50-50.32s24.36-39.72,24.5-40l.32-.62-.52-.47c-.51-.48-12.73-11.61-20.63-15.92-3.72-2-22.1-14.1-42.75-28.07-18-12.18-38.61-26.44-42.46-29.93-6.57-5.94-39.48-18.58-53.53-24l-5.23-2c-7-2.82-17-8.16-17.13-8.21h0l-8.25-4-.44-.21Z"/></g></g></g></svg>