<svg xmlns="http://www.w3.org/2000/svg" viewBox="0 0 487.84 462.1"><title>color</title><g id="Capa_2" data-name="Capa 2"><g id="Capa_1-2" data-name="Capa 1"><path id="color" d="M467.39,96.16C459.5,91.85,389.53,44.85,382,38s-51.31-23-58.48-25.83S306.29,4,306.29,4L298,0s-29.55,17.58-54.12,17.58S189.8,0,189.8,0l-8.25,4S171.5,9.33,164.33,12.2s-51,19-58.49,25.83S28.34,91.85,20.45,96.16,0,111.94,0,111.94s13.63,26.55,24.4,39.83S74.27,202,74.27,202a161.72,161.72,0,0,1,16.5-11.12c7.18-3.95,19.62-17.58,19.62-17.58v23l-1.08,265.82s3.23,0,13.28,0,48.55-1,66.85-.31,54.48,0,54.48,0,36.18.71,54.48,0,56.15.27,66.2.31,13.27,0,13.27,0l-.41-265.82v-23s12.43,13.63,19.61,17.58A161.72,161.72,0,0,1,413.57,202s39.11-37,49.88-50.23,24.39-39.83,24.39-39.83S475.29,100.46,467.39,96.16Z"/></g></g></svg>