<svg xmlns="http://www.w3.org/2000/svg" viewBox="0 0 490.11 464.05"><defs><style>.cls-1{fill:#010201;}</style></defs><title>contorno</title><g id="Capa_2" data-name="Capa 2"><g id="Capa_1-2" data-name="Capa 1"><path class="cls-1" d="M299.17,1,307.43,5s10,5.38,17.22,8.25,51,19,58.48,25.84,77.5,53.82,85.39,58.12S489,113,489,113s-13.63,26.55-24.39,39.82S414.7,203,414.7,203a161.61,161.61,0,0,0-16.5-11.13c-7.18-3.94-19.61-17.58-19.61-17.58v23L379,463.12s-1.44,0-5.37,0l-7.91,0c-7.4,0-29.89-.58-48.54-.58-6.66,0-12.84.07-17.66.26-6.1.24-14.18.32-22.25.32-16.15,0-32.23-.32-32.23-.32s-16.08.32-32.22.32c-8.07,0-16.16-.08-22.26-.32-4.82-.19-11-.26-17.77-.26-18.83,0-41.68.55-49.08.58l-7.91,0c-3.93,0-5.37,0-5.37,0l1.08-265.83v-23S99.08,188,91.91,191.91A162.26,162.26,0,0,0,75.4,203s-39.11-37-49.87-50.24S1.13,113,1.13,113,13.69,101.5,21.58,97.19,99.44,45.88,107,39.07s51.3-23,58.48-25.84S182.68,5,182.68,5L190.93,1s29.55,17.58,54.12,17.58S299.17,1,299.17,1m0-1-.42.25c-.3.17-29.63,17.45-53.66,17.45S191.69.42,191.4.25L191,0l-.44.21-8.25,4h0c-.1.05-10.09,5.39-17.13,8.21l-5.23,2c-14,5.4-47,18-53.53,24C102.51,41.88,81.9,56.14,63.9,68.31c-20.65,14-39,26.05-42.75,28.08C13.25,100.7,1,111.83.52,112.3l-.52.47.32.63c.14.26,13.8,26.78,24.5,40s49.56,50,49.95,50.32l.57.53.62-.47a162.92,162.92,0,0,1,16.39-11c5.76-3.17,14.65-12.24,18.26-16.06v20.64l-1.08,265.83v.9h.9s1.49,0,5.38,0l7.91,0c2.62,0,7.11-.08,12.79-.18,10.18-.16,24.12-.39,36.29-.39,7.4,0,13.37.08,17.74.25,5.41.22,12.91.32,22.29.32,15.73,0,31.59-.3,32.22-.32s16.5.32,32.23.32c9.38,0,16.88-.1,22.29-.32,4.37-.17,10.3-.25,17.62-.25,12,0,25.76.23,35.79.39,5.65.1,10.11.17,12.75.18l7.91,0c3.89,0,5.36,0,5.38,0h.9v-.9l-.42-265.83V176.65c3.61,3.82,12.49,12.89,18.26,16.06a164.21,164.21,0,0,1,16.39,11l.62.47.56-.53c.39-.37,39.28-37.15,50-50.32s24.36-39.72,24.5-40l.32-.63-.52-.47c-.51-.47-12.73-11.6-20.63-15.91-3.72-2-22.1-14.1-42.76-28.08-18-12.17-38.6-26.43-42.46-29.92-6.56-5.94-39.47-18.58-53.53-24l-5.22-2c-7.05-2.82-17-8.16-17.13-8.21h0L299.57.21,299.13,0Z"/><path class="cls-1" d="M79.75,199.81l-.23-.35.39-.25.22.35ZM79,198.69l-.5-.76.38-.25.5.76Zm-1-1.53-.5-.77.38-.25.5.77Zm-1-1.53-.49-.77.38-.25.5.77Zm-1-1.45-.62-.68.34-.31.62.68Zm-1.24-1.36-.62-.68.34-.3.62.67Zm-1.23-1.35-.62-.68.33-.31.62.68Zm-1.24-1.35-.62-.68.34-.31.62.68ZM71,188.77l-.61-.68.33-.31.62.68Zm-1.23-1.35-.62-.68.34-.31.62.68Zm-1.23-1.36-.62-.67.34-.31.61.68Zm-1.24-1.35-.62-.67.34-.31.62.68Zm-1.23-1.35-.62-.67.34-.31.62.67ZM64.86,182l-.61-.67.34-.31.61.67Zm-1.23-1.35L63,180l.33-.3.62.67Zm-1.23-1.35-.62-.68.34-.3.62.67ZM61.17,178l-.62-.68.34-.31.61.68Zm-1.23-1.35-.62-.68.34-.31.61.68Zm-1.24-1.36-.61-.67.34-.31L59,175Zm-1.23-1.35-.61-.68.34-.3.61.67Zm-1.23-1.35-.61-.68.33-.31.62.68ZM55,171.19l-.61-.68.33-.3.62.67Zm-1.23-1.35-.61-.68.34-.3.61.67Zm-1.23-1.35-.61-.68.34-.31.61.68Zm-1.22-1.36-.62-.68.34-.3.62.67Zm-1.23-1.35-.62-.68.34-.31.62.68Zm-1.23-1.36-.61-.68.34-.31.61.68Zm-1.23-1.36-.61-.68.34-.3.61.68Zm-1.22-1.36-.61-.68.34-.3.61.68Zm-1.22-1.36-.62-.68.34-.3.62.68ZM44,159l-.61-.68.34-.3.61.68Zm-1.22-1.36-.59-.66.32-.33.61.69Zm-1.22-1.36-.61-.69.34-.3.61.68Zm-1.22-1.37-.6-.69.34-.3.6.69Zm-1.2-1.38-.59-.7.35-.3c.2.24.39.48.59.7Zm-1.18-1.41-.58-.71.36-.29.58.71Zm-1.15-1.43-.57-.71.36-.29q.28.38.57.72Zm-1.13-1.43-.56-.73.36-.28L36,149Zm-1.12-1.45-.56-.73.37-.28c.18.25.37.49.55.73Zm-1.11-1.46-.55-.74.37-.27.55.73Zm-1.09-1.47-.55-.73.37-.28.54.74Zm-1.09-1.47-.54-.74.36-.27.54.74Zm-1.08-1.48-.54-.74.37-.27.54.74Zm-1.08-1.48-.53-.74.37-.27.53.74ZM28,139l-.53-.75.37-.26.54.74ZM27,137.46l-.53-.75.37-.26.53.74ZM25.89,136l-.52-.74.37-.27.53.75Zm-1.05-1.49-.53-.75.38-.27.52.76ZM23.79,133l-.53-.75.38-.27.52.75Zm-1.05-1.5-.52-.75.38-.26.52.74Zm-1-1.51-.52-.75.38-.26.52.75Zm-1-1.5-.5-.73.36-.28.52.75Zm-1-1.51-.51-.75.37-.26.52.75Zm-1-1.51-.5-.73.36-.28.52.75Zm-1-1.51-.51-.76.37-.25.52.75Zm-1-1.51-.51-.76.38-.26.51.76Zm-1-1.52-.51-.76.37-.25.52.76Zm-1-1.52-.51-.75.38-.26.51.76Zm-1-1.51-.51-.76.38-.26.51.76Zm-1-1.52-.51-.77.38-.25.5.76Zm-1-1.53-.51-.76.38-.25.51.76Zm-1-1.52-.5-.76.38-.26.5.77Zm-1-1.53L8.9,111l.38-.25.5.76Zm-1-1.53-.5-.76.38-.25.5.76Zm-1-1.53-.5-.78.38-.25.5.78Z"/><path class="cls-1" d="M84.54,196.44s-.15-.3-.4-.76l.41-.22c.42.82.42.82.42.88Zm-.82-1.57c-.14-.25-.28-.52-.44-.8l.4-.22c.16.28.3.55.44.8Zm-.88-1.6-.46-.79.4-.23c.15.27.31.54.45.8Zm-.92-1.57-.48-.78.39-.24.48.78Zm-1-1.54-.51-.75.37-.27.52.76Zm-1-1.48-.14-.17-.45-.52.34-.3.47.53.14.18Zm-1.21-1.36c-.18-.21-.39-.43-.62-.68l.33-.31L79,187ZM77.45,186l-.63-.66.33-.32.63.67Zm-1.26-1.33-.63-.66.33-.32.63.67Zm-1.26-1.33-.63-.66.33-.32.63.67ZM73.67,182l-.62-.64.15-.18.17-.15-.17.15.18-.14.62.65Zm-1.26-1.32-.64-.66.34-.32.63.66Zm-1.27-1.32-.63-.67.33-.31.63.66ZM69.88,178l-.63-.66.33-.31.63.66Zm-1.26-1.32L68,176l.33-.32.64.66Zm-1.27-1.32-.63-.66.33-.32.63.66Zm-1.26-1.32-.64-.66.33-.32.64.66Zm-1.27-1.32-.63-.67.33-.31.63.66Zm-1.26-1.33-.64-.66.33-.31.64.66Zm-1.27-1.32-.63-.66.33-.31.63.66ZM61,168.76l-.64-.66.33-.32.64.67Zm-1.27-1.32-.63-.66.33-.32.63.66Zm-1.27-1.32-.63-.67.33-.31.63.66Zm-1.26-1.33-.63-.65.33-.32.63.66ZM56,163.47l-.64-.66.33-.31.64.66Zm-1.27-1.32-.63-.66.33-.32.63.67Zm-1.26-1.32-.63-.66.33-.32.63.66Zm-1.26-1.33-.64-.66.34-.31.63.66Zm-1.27-1.32-.63-.66.33-.32.64.67Zm-1.26-1.32-.63-.67.33-.31.63.66Zm-1.26-1.33-.63-.66.33-.32.63.66Zm-1.26-1.33-.63-.66.34-.32.62.67Zm-1.25-1.33-.63-.66.33-.32.63.67Zm-1.26-1.33-.63-.67.33-.31.63.67Zm-1.25-1.34-.63-.67.33-.31.63.67Zm-1.25-1.34-.63-.67.34-.31.62.67Zm-1.25-1.35-.62-.68.34-.3.62.68Zm-1.23-1.36c-.26-.3-.47-.54-.6-.72l.35-.28.59.69Zm-1.15-1.46-.55-.75.37-.27.54.75ZM37.4,143.2l-.54-.74.37-.27.54.74Zm-1.08-1.48-.54-.74.37-.27.54.74Zm-1.08-1.48-.54-.74.37-.27.54.74Zm-1.08-1.48-.54-.74.37-.27.54.74Zm-1.08-1.48-.54-.74.37-.27.54.74ZM32,135.8l-.53-.74.36-.27.54.74Zm-1.07-1.48-.54-.74.36-.27.52.71Zm-1.08-1.48-.54-.73.37-.27.54.74Zm-1.08-1.47-.54-.74.37-.27.54.74Zm-1.08-1.48-.54-.74.37-.27.54.74Zm-1.08-1.48-.54-.74.37-.27.54.74Zm-1.08-1.48-.54-.74.37-.27.54.74Zm-1.08-1.47-.54-.75.37-.27.54.75ZM23.37,124l-.54-.73.37-.27.54.73ZM22.3,122.5l-.54-.74.37-.27.54.74ZM21.22,121l-.54-.74.37-.27.54.74Zm-1.08-1.48-.54-.73.37-.27.54.73Zm-1.08-1.47-.54-.74.37-.27.54.74ZM18,116.59l-.54-.74.37-.27.54.74Zm-1.08-1.48-.54-.74.37-.27.54.74Zm-1.08-1.48-.54-.74.37-.27.54.74Zm-1.08-1.48-.54-.74.37-.27.54.74Zm-1.08-1.48-.54-.74.37-.27.54.74Zm-1.08-1.48-.54-.74.37-.27.54.74Zm-1.08-1.48L11,107l.37-.27.54.74Zm-1.08-1.48-.55-.75.37-.27.55.75Z"/><path class="cls-1" d="M111.79,174.17l-.44-.11c0-.18.12-.48.21-.89l.45.1C111.91,173.68,111.84,174,111.79,174.17Zm.43-1.8-.44-.1.2-.89.45.11Zm.41-1.78-.44-.1.2-.89.45.1Zm.41-1.78-.44-.1.2-.9.44.1Zm.41-1.79-.45-.1.2-.89.44.1Zm.39-1.79-.44-.09.19-.9.45.1Zm.39-1.78-.44-.1.19-.89.45.09Zm.39-1.79-.45-.1.19-.89.45.09Zm.38-1.79-.44-.1.18-.89.45.09Zm.38-1.79-.45-.1.19-.89.44.09Zm.37-1.79-.45-.09.19-.9.44.09Zm.37-1.79-.45-.1.18-.89.45.09Zm.36-1.8-.45-.09.18-.89.45.09Zm.36-1.79-.45-.09.17-.9.45.09Zm.35-1.8-.45-.08.17-.9.45.09Zm.34-1.79-.44-.09.17-.9.45.09Zm.35-1.8-.45-.08.17-.9.44.08Zm.33-1.8-.45-.08.17-.9.45.08Zm.33-1.8-.45-.08.17-.9.45.09Zm.33-1.79-.45-.09.16-.89.45.07Zm.32-1.81-.45-.07.16-.9.45.07Zm.31-1.8-.45-.07.16-.91.45.08Zm.31-1.8-.45-.08.15-.9.45.08Zm.3-1.8-.45-.08.15-.9.45.07Zm.3-1.81L120,131l.15-.9.45.07Zm.28-1.8-.45-.08.14-.9.46.07Zm.29-1.81-.46-.07.14-.9.45.06Zm.27-1.81-.45-.07.13-.9.45.07Zm.27-1.81-.45-.07.13-.9.45.06Zm.26-1.81-.46-.06.13-.91.45.06Zm.25-1.82-.45-.06.12-.91.45.06Zm.24-1.81-.45-.06.12-.91.45.06Zm.24-1.82-.46-.06.12-.9.45.06Zm.22-1.81-.45-.06.1-.9.46.05Zm.21-1.81-.45,0,.1-.91.46,0Zm.21-1.82-.46-.05.1-.91.46,0Zm.19-1.82-.45,0,.09-.9.45,0Zm.18-1.82-.45,0,.09-.91.45,0Zm.17-1.82-.45,0,.08-.91.45,0Zm.16-1.82-.45,0,.07-.91.45,0Zm.14-1.83-.45,0,.06-.91.46,0Zm.13-1.82-.46,0c0-.31,0-.61.06-.91l.46,0Zm.11-1.83-.45,0,0-.91.45,0Zm.1-1.83-.46,0c0-.3,0-.61,0-.91l.46,0C124.35,96,124.34,96.29,124.33,96.59Zm.07-1.83H124l0-.92.45,0Zm.06-1.83H124c0-.3,0-.61,0-.91h.46C124.47,92.32,124.46,92.63,124.46,92.93Zm0-1.83H124c0-.31,0-.61,0-.92h.46C124.49,90.49,124.49,90.8,124.49,91.1ZM124,89.27c0-.3,0-.61,0-.91h.46c0,.3,0,.6,0,.91Zm0-1.82,0-.91h.45l0,.91Zm0-1.82,0-.92h.45c0,.3,0,.6,0,.91Zm-.07-1.83c0-.3,0-.61,0-.91l.45,0c0,.3,0,.61,0,.91ZM123.81,82c0-.31,0-.61,0-.91l.45,0,.06.91Zm-.11-1.82-.06-.91.45,0c0,.3,0,.6.07.91Zm-.13-1.82c0-.31,0-.61-.07-.91l.45,0c0,.3,0,.61.07.91Zm-.15-1.82-.09-.91.46,0c0,.3,0,.6.08.91Zm-.18-1.82-.09-.9.45,0c0,.3.07.6.1.91Zm-.19-1.81c0-.3-.07-.61-.11-.91l.46,0c0,.3.07.6.1.91Zm-.22-1.81c0-.31-.07-.61-.11-.91l.45-.06.12.91Zm-.23-1.81c0-.3-.09-.61-.13-.91l.45-.06c0,.3.09.6.13.91Zm-.26-1.81c0-.3-.09-.6-.14-.9l.45-.07c0,.3.09.6.14.9Zm-.28-1.8-.15-.9.45-.08.15.91Zm-.31-1.8-.15-.9.44-.08c.06.3.11.6.16.9Zm-.32-1.8c-.06-.3-.11-.6-.17-.89l.45-.09c.06.3.11.6.17.9Zm-.35-1.79-.18-.89.45-.09.18.89Zm-.37-1.78c-.06-.3-.12-.6-.19-.9l.45-.09c.06.29.13.59.19.89Zm-.39-1.79c-.06-.3-.13-.59-.2-.88l.44-.11.21.89Zm-.41-1.77c-.07-.3-.14-.6-.22-.89l.45-.11.21.89Zm-.44-1.77c-.07-.3-.15-.6-.23-.89l.45-.11c.07.29.15.58.22.88ZM119,51.39l-.24-.88.44-.12.24.88Zm-.49-1.76c-.08-.29-.16-.59-.25-.87l.44-.13c.08.29.17.58.25.88ZM118,47.88c-.09-.29-.17-.59-.26-.87l.43-.14.27.88Zm-.53-1.74c-.1-.3-.19-.59-.28-.87l.43-.14c.1.28.19.57.28.87Zm-.57-1.74c-.09-.29-.19-.58-.29-.86l.43-.15q.15.42.3.87Zm-.59-1.72c-.1-.3-.2-.58-.3-.86l.43-.16q.15.42.3.87ZM115.7,41c-.11-.29-.21-.58-.32-.85l.43-.17c.1.28.21.57.32.86Zm-.65-1.7-.34-.85.43-.17c.1.27.22.55.34.85Zm-.69-1.69-.36-.84.42-.18c.11.25.24.53.36.84Zm-.73-1.67c-.24-.54-.39-.82-.39-.82l.41-.21.4.84Z"/><path class="cls-1" d="M245.68,67.83h-.63c-9.2.15-23.36-2.86-38.54-18-13.64-13.64-16-48.37-16-48.72l.91-.05c0,.34,2.37,34.73,15.76,48.13,15,15,28.86,17.91,37.9,17.77,9,.15,22.95-2.82,37.9-17.77C296.35,35.74,298.7,1.35,298.72,1l.91.05c0,.35-2.39,35.08-16,48.72C268.77,64.62,254.9,67.83,245.68,67.83Z"/><path class="cls-1" d="M245.61,75.43H245a47.45,47.45,0,0,1-12-1.53,76.84,76.84,0,0,1-27.82-13.27c-10.91-8.11-16.57-22.81-19.39-33.72A120.86,120.86,0,0,1,182.22,5l.92,0c0,.4,2.08,39.69,22.58,54.93A75.76,75.76,0,0,0,233.16,73,47.3,47.3,0,0,0,257,73a75.84,75.84,0,0,0,27.44-13.1C304.89,44.64,307,5.36,307,5l.91,0a120.28,120.28,0,0,1-3.55,21.9c-2.83,10.91-8.49,25.61-19.4,33.72a76.74,76.74,0,0,1-27.81,13.27A51.26,51.26,0,0,1,245.61,75.43Z"/><path class="cls-1" d="M310.23,6.8h-.45c0-.3,0-.45,0-.45h.45S310.24,6.5,310.23,6.8Z"/><path class="cls-1" d="M247,80.3h-.53v-.45h.91v.45Zm-3.79,0h-.39v-.45h.91v.45Zm-1.3,0-.92,0,0-.46c.3,0,.6,0,.91,0Zm6.4,0,0-.46c.31,0,.61,0,.91,0l0,.46Zm-2.75,0-.46,0-.44,0v-.46h.92ZM240,80.21l-.92-.06,0-.46.9.06Zm10.06,0,0-.46.91-.06,0,.45Zm-11.89-.14-.91-.09.05-.46q.45.06.9.09Zm13.71,0,0-.46c.31,0,.61,0,.91-.09l.05.46Zm-15.53-.2-.91-.12.06-.45.91.12Zm17.36,0-.06-.45.9-.12.06.45Zm-19.18-.26-.9-.15.08-.45.9.15Zm21,0-.07-.45.89-.15.08.45Zm-22.79-.32-.9-.18.1-.45.89.18Zm24.59,0-.08-.45.89-.18.09.44ZM231,78.91l-.89-.22.11-.44.88.21Zm28.18,0-.11-.44.89-.21.11.44C259.74,78.76,259.45,78.84,259.15,78.9Zm-30-.44-.88-.24.12-.44.88.24Zm31.73,0-.11-.44.87-.24.13.44ZM227.43,78l-.88-.27.14-.44q.44.15.87.27Zm35.26,0-.14-.44.87-.27.14.44Zm-37-.56-.86-.3.15-.43.86.3Zm38.75,0-.15-.43.86-.3.16.43ZM224,76.78l-.86-.33.17-.42.85.33Zm42.2,0-.16-.43.84-.32.17.42Zm-43.91-.67-.84-.36.18-.42.84.36Zm45.61,0-.17-.43.83-.35.19.42Zm-47.29-.73-.83-.38.19-.42.83.39Zm49,0-.18-.42.82-.38.19.41Zm-50.63-.78-.82-.41.21-.41.81.41Zm52.29,0-.2-.41.81-.41.21.41Zm-53.92-.83-.81-.44.22-.4.8.43Zm55.55,0-.21-.4.8-.43.22.4Zm-57.16-.88-.79-.46.23-.39.79.46Zm58.77,0-.23-.4L275,72l.23.39ZM214.09,72l-.77-.48.24-.39.77.48ZM276,72l-.24-.39.77-.48.24.38Zm-63.47-1-.77-.51.26-.38.76.51Zm65,0-.25-.38.76-.5.26.38Zm-66.53-1-.75-.53.27-.37.74.53Zm68,0-.26-.38.74-.53.27.37Zm-69.54-1.08-.73-.55.28-.36.73.55Zm71,0-.28-.37.73-.55.28.37Zm-72.48-1.12-.71-.58.29-.35.71.58Zm73.93,0-.29-.36c.25-.19.48-.39.71-.57l.29.35Zm-75.34-1.17L206,66l.3-.34.69.6Zm76.75,0-.3-.35.69-.6.3.34C283.91,66.16,283.68,66.36,283.43,66.57Zm-78.12-1.22c-.25-.22-.47-.43-.67-.63l.31-.33.67.63Zm79.49,0-.31-.34c.25-.22.47-.43.67-.62l.31.33ZM204,64.07c-.36-.36-.57-.6-.64-.67l.34-.3c.06.07.27.3.63.65Zm82.15,0-.33-.32.63-.66.34.31C286.71,63.46,286.5,63.7,286.13,64.07Zm-83.47-1.21-.71-.59.3-.35.69.58Zm84.8,0-.29-.35.7-.58.29.35Zm-86.2-1.18-.69-.61.31-.34.68.61Zm87.59,0-.3-.35.68-.6.31.33Zm-88.94-1.24-.66-.64.32-.33.65.64Zm90.29,0-.31-.33c.22-.2.43-.42.65-.63l.32.32C290.64,60,290.43,60.21,290.2,60.42Zm-91.59-1.29c-.21-.22-.43-.44-.63-.67l.33-.31.63.67Zm92.89,0-.33-.32.63-.66.33.31Zm1.25-1.35-.34-.3c.2-.23.4-.45.59-.68l.35.29Zm-95.39,0-.61-.69.35-.3.6.69Zm96.58-1.39-.35-.29.57-.7.36.28C294.33,55.92,294.14,56.16,293.94,56.39Zm-97.78,0-.58-.72.36-.28.57.71ZM295.08,55l-.36-.27.54-.73.37.28ZM195,55l-.55-.74.37-.27c.18.25.36.49.55.73ZM296.17,53.5l-.37-.27.52-.74.37.26Zm-102.25,0-.53-.75.38-.26c.17.25.34.5.52.74ZM297.2,52l-.38-.25c.17-.25.34-.5.5-.76l.38.25C297.54,51.49,297.37,51.74,297.2,52ZM192.88,52l-.51-.77.39-.24.5.76Zm105.31-1.49-.39-.24.48-.78.39.24Zm-106.31-.05c-.16-.26-.32-.52-.47-.78l.39-.24.47.78Zm107.25-1.52-.39-.23c.15-.26.3-.52.44-.78l.4.22Zm-108.19,0-.45-.8.4-.22.45.79ZM300,47.3l-.4-.22c.15-.26.29-.53.43-.8l.4.21C300.31,46.76,300.17,47,300,47.3Zm-110-.06c-.15-.27-.29-.54-.43-.81l.4-.21.43.8Zm110.82-1.56-.4-.21.4-.81.41.2ZM189.2,45.61l-.41-.82.41-.2c.14.28.27.55.41.82ZM301.68,44l-.41-.19.38-.83.42.19ZM188.4,44l-.39-.83.42-.19c.12.27.25.55.38.82Zm114-1.6-.42-.19c.13-.27.25-.55.37-.83l.42.18C302.69,41.81,302.57,42.09,302.44,42.37Zm-114.8-.07c-.13-.28-.25-.56-.37-.84l.42-.18.36.84Zm115.52-1.62-.42-.17c.12-.28.23-.56.34-.84l.43.17Zm-116.24-.06c-.12-.28-.23-.57-.35-.85l.43-.17c.11.28.22.56.34.84ZM303.84,39l-.42-.16c.11-.28.21-.57.32-.85l.43.16Zm-117.6-.06-.33-.86.43-.16c.11.29.22.57.32.85Zm118.24-1.65-.43-.16c.11-.28.21-.57.31-.85l.43.15C304.69,36.69,304.59,37,304.48,37.27ZM185.6,37.2c-.1-.29-.21-.57-.31-.86l.44-.15c.09.28.2.57.3.86Zm119.49-1.66-.44-.15c.1-.28.19-.57.29-.86l.43.14C305.28,35,305.18,35.25,305.09,35.54ZM185,35.47l-.29-.87.44-.14c.09.29.18.58.28.87ZM305.65,33.8l-.43-.14c.09-.29.18-.58.26-.87l.44.13Zm-121.22-.07-.27-.87.44-.14.27.88Zm121.75-1.68-.44-.13c.09-.29.17-.59.25-.88l.44.13C306.35,31.46,306.27,31.75,306.18,32.05ZM183.9,32c-.08-.3-.16-.59-.25-.88l.44-.12c.08.29.17.58.25.87Zm122.78-1.69-.44-.12c.08-.3.15-.59.23-.88l.44.11C306.84,29.69,306.76,30,306.68,30.29Zm-123.27-.07c-.08-.3-.16-.59-.23-.89l.44-.11c.07.29.15.58.23.88Zm123.73-1.71-.44-.11.21-.88.45.11C307.29,27.92,307.21,28.22,307.14,28.51ZM183,28.45c-.08-.3-.15-.6-.22-.89l.44-.11c.08.29.15.59.22.88Zm124.62-1.71-.45-.11.21-.89.44.1C307.71,26.14,307.64,26.44,307.57,26.74Zm-125-.07c-.07-.3-.14-.6-.2-.9l.45-.1c.06.3.13.59.2.89ZM308,25l-.45-.1c.06-.3.13-.59.19-.89l.44.09Zm-125.85-.07-.18-.9.45-.09.18.89Zm126.21-1.72-.45-.09.18-.9.44.09C308.45,22.55,308.39,22.85,308.33,23.16Zm-126.57-.08c-.06-.3-.12-.6-.17-.89l.45-.09c.05.3.11.6.17.9Zm126.91-1.72-.45-.08q.07-.47.15-.9l.45.07Zm-127.25-.07-.15-.91.45-.07c.05.29.1.59.16.9ZM309,19.55l-.45-.07c.05-.3.1-.61.14-.9l.46.07C309.07,18.94,309,19.25,309,19.55Zm-127.85-.07c-.05-.3-.09-.61-.14-.9l.45-.07c0,.29.09.59.14.9Zm128.13-1.74-.45-.06.12-.91.46.06C309.33,17.13,309.29,17.43,309.25,17.74Zm-128.4-.07c0-.31-.09-.61-.13-.91l.45-.06c0,.3.09.6.13.91Zm128.64-1.74-.45-.06c0-.31.08-.61.11-.9l.46,0ZM180.6,15.86c0-.31-.07-.62-.11-.91l.46-.06c0,.3.07.6.11.91Zm129.11-1.75-.46,0c0-.31.07-.61.1-.91l.45,0C309.77,13.49,309.74,13.8,309.71,14.11ZM180.39,14c0-.31-.07-.62-.1-.91l.46-.05.09.91Zm129.5-1.75-.45,0c0-.31.05-.61.08-.9l.45,0C310,11.67,309.92,12,309.89,12.29Zm-129.68-.08c0-.31-.06-.61-.08-.91l.45,0c0,.3,0,.6.08.91ZM310,10.46l-.45,0c0-.32,0-.63.06-.91l.46,0C310.09,9.83,310.07,10.14,310,10.46Zm-130-.07c0-.32-.05-.63-.07-.92l.46,0c0,.29,0,.59.06.91Zm130.1-1.76-.45,0c0-.34,0-.65,0-.92l.45,0C310.19,8,310.18,8.29,310.16,8.63ZM179.94,8.56c0-.35,0-.65,0-.92l.46,0c0,.27,0,.57,0,.91Z"/><path class="cls-1" d="M179.87,6.8c0-.3,0-.46,0-.46h.46s0,.15,0,.45Z"/><path class="cls-1" d="M410.36,199.81l-.39-.25.23-.35.38.25Zm.72-1.12-.38-.25.5-.76.38.25Zm1-1.53-.39-.25.5-.77.38.25Zm1-1.53-.38-.25.5-.77.38.25Zm1.05-1.46-.34-.3.63-.68.33.31Zm1.24-1.35-.33-.31.61-.67.34.3Zm1.24-1.35-.34-.31.62-.68.34.31Zm1.24-1.35-.34-.31.62-.68.33.31Zm1.23-1.35-.33-.31.61-.68.34.31Zm1.24-1.35-.34-.31.62-.68.33.31Zm1.23-1.36-.34-.3.62-.68.34.31Zm1.23-1.35-.33-.3.61-.68.34.31Zm1.24-1.35-.34-.31.62-.67.33.31Zm1.23-1.35-.34-.31.62-.67.34.31Zm1.23-1.35-.33-.31.61-.67.34.3Zm1.24-1.35-.34-.31.62-.67.33.3Zm1.23-1.35-.34-.31.62-.68.34.31Zm1.23-1.35-.34-.31.62-.68.34.31Zm1.23-1.36-.34-.3.62-.68.34.31Zm1.23-1.35-.34-.31.62-.67.34.3Zm1.23-1.35-.33-.31.61-.68.34.31Zm1.24-1.36-.34-.31.61-.67.34.3Zm1.22-1.35-.33-.31.61-.67.34.3Zm1.23-1.35-.34-.31.62-.68.34.31Zm1.23-1.36-.34-.31.62-.67.33.3Zm1.23-1.35-.34-.31.61-.68.34.31Zm1.23-1.36-.34-.31.61-.68.34.31Zm1.22-1.36-.34-.3.62-.68.33.3Zm1.23-1.36-.34-.3.61-.68.34.3Zm1.22-1.36-.34-.3.61-.68.34.3Zm1.22-1.36-.34-.3.62-.68.34.3Zm1.23-1.36-.34-.3.59-.67.19.14.15.17Zm1.22-1.36-.34-.31.6-.68.34.3Zm1.21-1.37-.34-.3.61-.69.34.3Zm1.21-1.38-.35-.3.59-.7.35.3Zm1.17-1.41-.35-.29.58-.71.35.29Zm1.16-1.43-.36-.28q.28-.34.57-.72l.35.29Zm1.13-1.43-.36-.29.56-.72.36.28Zm1.12-1.45-.37-.28.56-.73.36.28Zm1.1-1.46-.36-.28.55-.73.36.27Zm1.1-1.47-.37-.27.55-.74.37.28Zm1.09-1.47-.37-.27.54-.74.37.27Zm1.08-1.48-.37-.27.54-.74.37.27Zm1.07-1.48-.37-.27.54-.74.37.27Zm1.07-1.48-.37-.27.53-.74.37.26Zm1.07-1.49-.38-.27.53-.74.37.26Zm1-1.5-.37-.26.53-.75.37.27Zm1.06-1.49-.38-.26.53-.76.37.27Zm1.05-1.5-.38-.27.53-.75.37.26Zm1.05-1.5-.38-.27.52-.74.38.26Zm1-1.51-.38-.26.52-.75.38.26Zm1-1.5-.38-.26.5-.73.21.11.17.15Zm1-1.51-.37-.26.51-.75.38.26Zm1-1.51-.37-.26.5-.73.2.11.17.15Zm1-1.51-.38-.26.51-.75.38.25Zm1-1.51-.37-.26.51-.76.38.26Zm1-1.52-.38-.25.51-.76.38.25Zm1-1.52-.38-.25.51-.76.38.26Zm1-1.51-.38-.26.51-.76.38.26Zm1-1.52-.38-.26.51-.76.38.25Zm1-1.53-.38-.25.5-.76.39.25Zm1-1.52-.38-.25.51-.77.38.26Zm1-1.53-.38-.25.51-.76.38.25Zm1-1.53-.38-.25.51-.76.38.25Zm1-1.53-.38-.25.51-.78.38.25Z"/><path class="cls-1" d="M405.57,196.44l-.44-.1c0-.06,0-.06.43-.88l.4.22Zm.82-1.57-.4-.22c.13-.25.28-.52.44-.8l.4.22C406.67,194.35,406.52,194.62,406.39,194.87Zm.88-1.6-.4-.22.46-.8.39.23Zm.92-1.57-.39-.24.48-.78.39.24Zm1-1.54-.38-.26c.17-.26.35-.51.52-.76l.37.27Q409.42,189.77,409.16,190.16Zm1-1.48-.36-.28.14-.18.46-.53.34.3-.45.52Zm1.2-1.36-.33-.31c.18-.21.39-.43.62-.68l.34.31Zm1.25-1.35-.33-.31L413,185l.33.32Zm1.26-1.33-.33-.31.63-.67.33.32Zm1.26-1.33-.33-.31.63-.67.33.32Zm1.26-1.33-.33-.31.61-.65.35.3Zm1.26-1.32-.33-.32.63-.66.33.32Zm1.26-1.32-.33-.32.63-.66.33.31Zm1.27-1.33-.33-.31.63-.66.33.31Zm1.26-1.32-.33-.32.63-.66.33.32Zm1.27-1.32-.33-.32.63-.66.33.32Zm1.26-1.32-.33-.32.63-.66.33.32Zm1.27-1.33-.33-.31.63-.66.33.31Zm1.26-1.32-.33-.31.63-.66.33.31Zm1.27-1.32-.33-.31.63-.66.33.31Zm1.26-1.32-.33-.31.63-.67.33.32Zm1.27-1.32-.33-.32.63-.66.33.32Zm1.26-1.32-.33-.32.64-.66.33.31Zm1.27-1.33-.33-.31.63-.66.33.32Zm1.26-1.32-.33-.31.63-.66.33.31Zm1.26-1.32-.33-.31.63-.67.34.32Zm1.27-1.32-.33-.32.63-.66.33.32Zm1.26-1.33-.33-.31.63-.66.33.31Zm1.26-1.32-.33-.31.63-.67.33.32Zm1.26-1.32-.33-.32.63-.66.33.31Zm1.26-1.33-.33-.32.63-.66.33.31ZM443,154.2l-.33-.31.63-.67.33.32Zm1.26-1.33-.33-.31.63-.67.33.32Zm1.26-1.33-.34-.31.63-.67.33.31Zm1.25-1.34-.33-.31.62-.67.34.31Zm1.25-1.34-.33-.31.62-.67.33.31Zm1.24-1.35-.33-.3.61-.68.34.3C449.66,147,449.46,147.27,449.23,147.51Zm1.24-1.36-.35-.31c.26-.29.46-.52.59-.69l.36.28Q450.86,145.7,450.47,146.15Zm1.15-1.46-.37-.27.54-.75.37.27Zm1.08-1.49-.37-.27.55-.74.36.27Zm1.08-1.48-.36-.27.54-.74.36.27Zm1.08-1.48-.36-.27.53-.74.37.27Zm1.08-1.48-.37-.27.54-.74.37.27Zm1.08-1.48-.37-.27.54-.74.37.27Zm1.08-1.48-.37-.27.54-.74.37.27Zm1.1-1.51-.2-.1-.19-.14.54-.74.37.27Zm1.06-1.45-.37-.26.54-.74.37.27Zm1.08-1.47-.37-.27.54-.74.37.27Zm1.08-1.48-.37-.27.54-.74.37.27Zm1.07-1.48-.36-.27.54-.74.36.27Zm1.08-1.48-.37-.27.54-.74.37.27Zm1.08-1.47-.37-.27.54-.75.37.27Zm1.08-1.49-.37-.27.54-.73.37.27Zm1.08-1.47-.37-.27.54-.74.37.27Zm1.08-1.48-.37-.27.54-.74.37.27Zm1.08-1.48-.37-.27.54-.73.37.27Zm1.07-1.47-.36-.27.54-.74.36.27Zm1.08-1.48-.36-.27.53-.74.37.27Zm1.08-1.48-.37-.27.54-.74.37.27Zm1.08-1.48-.37-.27.54-.74.37.27Zm1.08-1.48-.37-.27.54-.74.37.27Zm1.08-1.48-.37-.27.54-.74.37.27Zm1.08-1.48-.37-.27.54-.74.37.27Zm1.08-1.48-.37-.27.55-.74.36.27Zm1.09-1.48-.37-.27.55-.75.36.27Z"/><path class="cls-1" d="M378.31,174.17c0-.19-.12-.49-.21-.9l.44-.1c.1.41.17.71.22.89Zm-.42-1.79-.21-.89.44-.11.21.89Zm-.42-1.79-.2-.89.44-.1.21.89Zm-.41-1.78-.2-.9.45-.1.2.9Zm-.4-1.79-.2-.89.45-.1.2.89Zm-.4-1.79-.19-.89.44-.1.2.9Zm-.39-1.78-.19-.9.45-.09.19.89Zm-.38-1.79-.2-.9.45-.09.19.89Zm-.39-1.79-.18-.9.44-.09.19.89Zm-.37-1.79-.19-.9.45-.09.19.9Zm-.37-1.79-.19-.9.45-.09.18.9ZM374,154.5l-.18-.9.45-.09.18.89Zm-.36-1.8-.18-.89.45-.09.18.89Zm-.36-1.79-.18-.9.45-.09.18.9Zm-.35-1.8-.17-.89.44-.09.18.9Zm-.35-1.79-.17-.9.45-.09.17.9Zm-.34-1.8-.17-.9.45-.08.17.9Zm-.34-1.8-.16-.9.45-.08.16.9Zm-.33-1.8-.16-.89.45-.09.16.9Zm-.32-1.79-.16-.91.45-.07.16.89Zm-.32-1.81-.16-.9.45-.07.16.9Zm-.31-1.8-.16-.9.45-.08.16.91Zm-.31-1.8-.15-.9.45-.08.15.9Zm-.3-1.8-.15-.91.45-.07.15.9Zm-.3-1.81-.14-.9.45-.07.14.9Zm-.29-1.8-.14-.91.45-.07.14.9Zm-.28-1.81-.14-.91.45-.06.14.9Zm-.27-1.81-.14-.9.45-.07.14.9Zm-.27-1.81-.13-.9.45-.07.13.9Zm-.26-1.81-.13-.91.46-.06.12.91Zm-.25-1.82-.12-.91.45-.06.12.91Zm-.25-1.81-.11-.91.45-.06.12.91Zm-.23-1.82-.11-.9.45-.06.11.9Zm-.22-1.81-.11-.91.45-.05.11.9Zm-.22-1.81-.1-.91.45,0,.11.91Zm-.2-1.82-.1-.91.45,0,.1.91Zm-.2-1.82-.09-.91.46,0,.09.9Zm-.18-1.82-.08-.91.45,0,.09.91Zm-.17-1.82-.08-.91.46,0,.08.91Zm-.15-1.82-.08-.92.46,0,.07.91Zm-.15-1.83-.06-.91.45,0,.07.91Zm-.12-1.82-.06-.92.45,0,.06.91Zm-.12-1.83-.05-.91.46,0,.05.91Zm-.09-1.83c0-.3,0-.61,0-.91l.46,0c0,.3,0,.61,0,.91Zm-.08-1.83,0-.91.46,0,0,.92Zm-.05-1.83c0-.3,0-.61,0-.91h.46c0,.3,0,.61,0,.91Zm0-1.83c0-.31,0-.61,0-.91h.46v.92Zm.45-1.83h-.46c0-.31,0-.61,0-.91h.45Zm0-1.82h-.46l0-.91h.46Zm.05-1.82-.46,0,0-.91h.46Zm.07-1.83-.46,0c0-.3,0-.61,0-.91l.46,0C366.23,83.19,366.22,83.5,366.21,83.8ZM366.3,82l-.46,0c0-.3,0-.61.05-.91l.46,0C366.33,81.37,366.31,81.67,366.3,82Zm.11-1.82-.46,0,.06-.91.46,0Zm.13-1.82-.46,0c0-.3.05-.61.08-.91l.45,0C366.59,77.73,366.56,78,366.54,78.34Zm.15-1.82-.45,0c0-.31.05-.61.08-.91l.45,0C366.75,75.91,366.72,76.22,366.69,76.52Zm.17-1.82-.45,0,.09-.91.46,0C366.93,74.1,366.89,74.4,366.86,74.7Zm.2-1.81-.46,0c0-.31.07-.61.11-.91l.45,0C367.13,72.28,367.09,72.59,367.06,72.89Zm.21-1.81-.45-.06.12-.91.45.06Zm.24-1.81-.45-.06.12-.91.46.06C367.59,68.66,367.55,69,367.51,69.27Zm.26-1.81-.45-.07c0-.3.09-.6.14-.9l.45.07C367.86,66.86,367.81,67.16,367.77,67.46Zm.28-1.8-.45-.07.15-.91.45.08Zm.3-1.8-.45-.08c.05-.3.11-.6.16-.9l.45.08C368.46,63.26,368.4,63.56,368.35,63.86Zm.33-1.8-.45-.08c0-.3.11-.6.17-.9l.45.09C368.79,61.46,368.73,61.76,368.68,62.06Zm.34-1.79-.45-.09.19-.89.44.09Zm.37-1.78-.45-.1c.07-.3.13-.6.2-.89l.44.09C369.52,57.89,369.45,58.19,369.39,58.49Zm.39-1.79-.44-.1c.06-.3.13-.59.2-.89l.45.11Zm.42-1.77-.45-.11c.08-.3.15-.6.22-.89l.44.11Zm.44-1.77-.45-.12c.08-.3.15-.59.23-.88l.44.11C370.79,52.56,370.71,52.86,370.64,53.16Zm.46-1.77-.44-.12.24-.88.44.12Zm.48-1.76-.44-.12c.09-.3.17-.59.26-.88l.43.13C371.75,49,371.67,49.34,371.58,49.63Zm.51-1.75-.43-.13c.08-.3.17-.59.26-.88l.44.14C372.27,47.29,372.18,47.59,372.09,47.88Zm.54-1.74-.44-.14c.1-.3.19-.59.28-.87l.44.14C372.82,45.55,372.72,45.84,372.63,46.14Zm.56-1.74-.43-.14.29-.87.43.15C373.39,43.82,373.29,44.11,373.19,44.4Zm.59-1.72-.43-.15.31-.87.43.16ZM374.4,41,374,40.8c.11-.29.21-.58.32-.86l.42.17Zm.65-1.7-.42-.17.34-.85.42.17C375.29,38.68,375.17,39,375.05,39.26Zm.69-1.69-.42-.18.36-.84.42.18Zm.73-1.67-.41-.19c.25-.55.4-.84.4-.84l.4.21S376.72,35.36,376.47,35.9Z"/><path class="cls-1" d="M245.06,25.53c-28.51-.3-53-14-53.21-14.17l.45-.8c.24.14,24.5,13.76,52.76,14.06,28.24-.3,52.5-13.92,52.74-14.06l.46.8C298,11.49,273.56,25.23,245.06,25.53Z"/><path class="cls-1" d="M245.06,27.53h-.45v-.46h.9v.46Zm-1.37,0-.91,0V27l.91,0Zm2.75,0V27l.91,0,0,.45Zm-4.58-.06-.91-.05,0-.45.91,0Zm6.41,0,0-.46.91-.05,0,.46Zm-8.24-.1-.91-.07,0-.45.91.06Zm10.07,0,0-.46.91-.06,0,.45Zm-11.89-.14-.92-.08.05-.45.9.08Zm13.72,0,0-.45.91-.08,0,.45ZM236.38,27l-.91-.1.05-.45.91.09Zm17.37,0,0-.45.9-.1,0,.46Zm-19.19-.19-.91-.12.06-.45.91.11Zm21,0,0-.45.9-.11.06.45Zm-22.83-.23-.9-.12.06-.46.91.13Zm24.65,0-.06-.45.9-.13.07.45Zm-26.46-.26-.9-.14.07-.45.9.14Zm28.27,0-.07-.45.9-.15.08.45Zm-30.08-.29-.9-.16.08-.45.9.16ZM261,26l-.08-.45.9-.15.08.45Zm-33.69-.31-.9-.18.09-.45.9.18Zm35.49,0-.08-.45.89-.17.09.45Zm-37.29-.35-.89-.18.09-.45.9.19Zm39.09,0-.09-.45.89-.18.09.44ZM223.73,25l-.89-.2.1-.44.89.2Zm42.67,0-.1-.45.89-.2.1.45ZM222,24.59l-.89-.22.11-.44.88.21Zm46.23,0-.1-.44.89-.22.11.45Zm-48-.43-.89-.22.12-.45.88.23Zm49.79,0-.11-.45.89-.22.11.44Zm-51.56-.46-.89-.24.12-.44.88.24Zm53.34,0-.12-.44.88-.24.12.44Zm-55.11-.48-.88-.25.13-.44.87.25Zm56.87,0-.12-.44.87-.25.13.44Zm-58.63-.5-.87-.27.13-.44.87.27Zm60.39,0-.13-.44L276,22l.14.43Zm-62.14-.53-.87-.28.14-.43.87.27Zm63.89,0-.14-.43.87-.28.14.44Zm-65.63-.55-.87-.29.15-.43.86.29Zm67.37,0-.14-.43.87-.29.14.43C279.34,21.4,279.05,21.5,278.75,21.59ZM209.64,21l-.86-.3.15-.44.86.3Zm70.85,0-.15-.43.86-.3.15.43Zm-72.57-.6-.87-.32.16-.42.86.31Zm74.3,0-.16-.43.86-.31.16.43Zm-76-.62-.86-.33.16-.42.86.32Zm77.73,0-.16-.43.86-.32.16.42Zm-79.44-.65-.86-.34.17-.42.85.34Zm81.15,0-.16-.42.85-.34.17.42Zm-82.85-.67-.85-.35.17-.42L203,18Zm84.56,0-.18-.42.85-.35.17.42Zm-86.26-.69-.84-.36.18-.42.84.36Zm88,0-.18-.42.84-.36.18.42ZM199.41,17l-.83-.37.18-.42.84.37Zm91.31,0-.19-.42.84-.37.19.42Zm-93-.74-.83-.38.19-.42.83.39Zm94.65,0-.19-.42.83-.38.19.41Zm-96.31-.77-.82-.4.2-.41.82.4Zm98,0-.2-.41.82-.4.2.41Zm-99.62-.79-.81-.42.2-.41.82.42Zm101.27,0-.21-.4.82-.42.2.41Zm-102.9-.83-.81-.44.22-.4.8.44Zm104.53,0-.22-.4.81-.44.22.4Z"/><path class="cls-1" d="M246.69,458.82h-.91v-.46h.91Zm-1.83,0h-.92v-.46h.89Zm-1.83,0h-.92v-.46H243Zm-1.84,0h-.91v-.46h.91Zm7.34,0h-.92v-.46h.92Zm.92,0v-.46h.92v.46Zm-10.09,0h-.91v-.46h.91Zm11.93,0v-.46h.92v.46Zm-13.76,0h-.91v-.46h.91Zm15.59,0v-.46H254v.46Zm-17.42,0h-.91v-.46h.92Zm19.26,0v-.46h.92v.46Zm-21.09,0H233v-.46h.91Zm22.92,0v-.46h.92v.46Zm-24.75,0h-.92v-.46H232Zm26.59,0v-.46h.91v.46Zm-28.42,0h-.92v-.46h.92Zm30.25,0v-.45h.92v.45Zm-32.09,0h-.91v-.46h.91Zm33.92,0v-.46h.92v.46Zm-35.75,0h-.92v-.46h.92Zm37.59,0v-.46H265v.46Zm-39.42,0h-.92v-.46h.92Zm41.25,0v-.46h.92v.46Zm-43.09,0H222v-.46h.91Zm44.92,0v-.46h.92v.45Zm-46.75,0h-.91v-.46H221Zm48.59,0v-.46h.91v.46Zm-50.42,0h-.92v-.46h.92Zm52.25,0v-.46h.92v.46Zm-54.09,0h-.91v-.46h.91Zm55.93,0v-.46h.91v.45Zm-57.76,0h-.92v-.46h.92Zm59.59,0v-.46H276v.46Zm-61.42,0h-.92v-.46h.92Zm63.25,0v-.46h.92v.45Zm-65.09,0H211v-.46h.91Zm66.92,0v-.46h.92v.46Zm-68.75,0h-.91v-.46H210Zm70.59,0v-.46h.91v.45Zm-72.43,0h-.9v-.46h.91Zm74.26,0v-.46h.92v.46Zm-76.09,0h-.92v-.46h.91Zm77.95,0,0-.23,0-.23h.89v.46Zm-79.78,0h-.92v-.46h.92Zm81.59,0v-.46H287v.45Zm-83.43,0h-.91v-.46h.92Zm85.26,0v-.46h.92v.46Zm-87.09,0H200l0-.23,0-.22h.88Zm88.93,0v-.46h.92v.46Zm-90.76,0h-.92v-.45H199Zm92.59,0v-.45h.92v.46Zm-94.43,0h-.92v-.45h.91Zm96.26,0v-.45h.92v.46Zm-98.09,0h-.92v-.45h.92Zm99.93,0v-.46h.91v.46Zm-101.77,0h-.91v-.46h.92Zm103.6,0v-.46h.92v.46Zm-105.43,0h-.92v-.46h.91Zm107.27,0v-.46h.92v.46Zm-109.11,0H189v-.46h.92Zm110.94,0v-.46h.92v.46Zm-112.77,0-.92,0v-.45H188Zm114.61,0v-.46h.92v.46Zm-192.57,0v-.46H111v.46Zm268.68,0h-.92v-.45h.92Zm-192.56,0-.91,0v-.46l.92,0Zm-74.27,0v-.46h.92v.46Zm265,0H376v-.46h.91Zm-263.16,0v-.46h.92v.46Zm261.33,0h-.92v-.46h.92Zm-70.61,0v-.46h.91v.46Zm-188.88,0v-.46h.92v.46Zm257.65,0h-.92v-.45h.92Zm-255.82,0v-.45h.92v.46Zm254,0h-.91v-.46h.92Zm-187,0h-.92v-.46h.91Zm-65.07,0,0-.46h.92v.45Zm250.28,0h-.92v-.46h.92Zm-248.45,0,0-.46H122v.46Zm246.62,0h-.92v-.46h.92Zm-61.43,0v-.46h.92v.46Zm-183.36,0,0-.46h.91v.46Zm243,0H365v-.46h.92Zm-183.37,0h-.92v-.46h.92Zm-57.75,0,0-.46h.92v.46Zm239.29,0h-.92v-.45h.92Zm-142.11,0v0Zm-95.35,0v-.45h.91v.46Zm93.51,0v0Zm142.11,0h-.91v-.46h.91Zm-54.09,0v-.46h.91v.45Zm-89.85,0v0Zm-89.86,0v-.46h.92v.46Zm232,0h-.92v-.45h.92Zm-179.71,0h-.91v-.46h.92Zm-50.42,0v-.45h.92v.46Zm228.29,0h-.91v-.46h.92Zm-226.46,0v-.46H133v.46Zm177.87,0v-.46h.92v.45Zm46.76,0h-.92v-.45h.92Zm-222.8,0v-.45h.92v.46Zm44.93,0h-.92v-.46h.92Zm176,0H354v-.46h.92Zm-219.13,0v-.46h.91v.46Zm176,0v-.46h.92v.45Zm41.25,0h-.91v-.46h.91Zm-143.94,0v0Zm-71.52,0v-.46h.92v.45Zm39.43,0h-.92v-.46H177Zm174.2,0h-.91v-.46h.92Zm-143.94,0v0Zm-67.85,0v-.46h.92v.46Zm174.2,0v-.46h.91v.46Zm35.75,0h-.91v-.46h.92Zm-208.12,0v-.46h.92v.46Zm33.92,0h-.91v-.45h.91Zm172.37,0h-.92v-.45h.92Zm-204.46,0v-.45H144v.46Zm172.39,0,0-.45h.92v.46Zm30.24,0h-.92v-.46h.92Zm-172.37,0h-.92v-.46h.92Zm-28.42,0v-.46h.92v.46Zm199,0H343v-.46h.91Zm-26.58,0v-.46h.91v.46Zm-170.54,0v-.46h.92v.46Zm24.76,0h-.91v-.46h.92Zm170.53,0h-.92v-.46h.92Zm-193.46,0v-.46h.92v.45Zm170.55,0v-.45h.92v.46Zm21.07,0h-.92v-.46h.92Zm-170.53,0h-.91v-.46h.91Zm-19.25,0v-.46h.92v.46Zm188,0h-.92v-.46h.92Zm-17.42,0v-.46h.92v.46Zm-168.7,0v-.46h.92v.46Zm184.28,0h-.91v-.46h.91Zm-168.69,0H167v-.46h.92Zm-13.75,0v-.46H155v.46Zm168.7,0v-.46h.91v.46Zm-156.78,0h-.92v-.46H166Zm168.69,0h-.91v-.46h.91Zm-178.78,0v-.46h.92v.46Zm177,0H332v-.46h.92Zm-8.25,0v-.46h.92v.46Zm-160.45,0h-.91v-.46h.91Zm-6.42,0v-.46h.92v.46Zm168.7,0v-.46h.92v.46Zm4.59,0h-.92v-.46h.92Zm-1.84,0h-.91v-.46h.91Zm-166.86,0h-.92v-.46h.92Zm-1.83,0h-.92v-.46h.92Zm39.42,0v0Z"/><path class="cls-1" d="M246.69,453.79h-.91v-.45h.91Zm-1.83,0h-.92v-.45h.89Zm-1.83,0h-.92v-.45H243Zm5.5,0h-.92v-.45h.92Zm-7.34,0h-.91v-.46h.91Zm8.26,0v-.46h.92v.46Zm-10.09,0h-.91v-.46h.91Zm11.93,0v-.46h.92v.46Zm1.83,0v-.46H254v.46Zm-15.59,0h-.91v-.46h.91Zm-1.83,0h-.91v-.46h.92Zm19.26,0v-.46h.92v.46Zm-21.09,0H233v-.46h.91Zm22.92,0v-.46h.92v.46Zm-24.75,0h-.92v-.46H232Zm26.59,0v-.46h.91v.46Zm-28.42,0h-.92v-.46h.92Zm30.25,0v-.46h.92v.46Zm-32.09,0h-.91v-.45h.91Zm33.92,0v-.45h.92v.46Zm-35.75,0h-.92v-.46h.92Zm37.59,0v-.46H265v.46Zm-39.42,0h-.92v-.46h.92Zm41.25,0v-.46h.92v.46Zm-43.09,0H222v-.46h.91Zm44.92,0v-.46h.92v.45Zm-46.75,0h-.91v-.45H221Zm48.59,0v-.45h.91v.46Zm-50.42,0h-.92v-.46h.92Zm52.25,0v-.46h.92v.46Zm-54.09,0h-.91v-.46h.91Zm55.93,0v-.46h.91v.45Zm-57.76,0h-.92v-.46h.92Zm59.59,0v-.46H276v.46Zm-61.42,0h-.92v-.46h.92Zm63.25,0v-.46h.92v.46Zm-65.09,0H211v-.45h.91Zm66.92,0v-.45h.92v.46Zm-68.75,0h-.91v-.46H210Zm70.59,0v-.46h.91v.46Zm-72.43,0h-.9v-.46h.91Zm74.26,0v-.46h.92v.46Zm-76.09,0h-.92v-.46h.91Zm77.95,0,0-.23,0-.23h.89v.46Zm-79.78,0h-.92v-.46h.92Zm81.59,0v-.46H287v.46Zm-83.43,0h-.91v-.46h.92Zm85.26,0v-.46h.92v.46Zm-87.09,0H200l0-.22,0-.23h.88Zm88.93,0v-.45h.92v.46Zm-90.76,0h-.92v-.46H199Zm92.59,0v-.46h.92v.46Zm-94.43,0h-.92v-.46h.91Zm96.26,0v-.46h.92v.46Zm-98.09,0h-.92v-.45h.92Zm99.93,0v-.45h.91v.46Zm-101.77,0h-.91v-.46h.92Zm103.6,0v-.46h.92v.45Zm-105.43,0h-.92v-.46h.91Zm107.27,0v-.46h.92v.46Zm-109.11,0H189v-.46h.92Zm110.94,0v-.46h.92v.46Zm-112.77,0-.92,0v-.45H188Zm114.61,0v-.45l.92,0v.46Zm-192.57,0v-.46H111v.46Zm268.68,0h-.92v-.45h.92Zm-192.56,0-.91,0v-.46l.92,0Zm-74.27,0v-.45h.92v.46Zm265,0H376v-.46h.91Zm-263.16,0v-.46h.92v.45Zm261.33,0h-.92v-.46h.92Zm-70.61,0v-.46h.91v.46Zm-188.88,0v-.46h.92v.46Zm257.65,0h-.92v-.45h.92Zm-255.82,0v-.45h.92v.46Zm254,0h-.91v-.46h.92Zm-187,0h-.92v-.46h.91Zm-65.07,0,0-.46h.92v.46Zm250.28,0h-.92v-.46h.92Zm-248.45,0,0-.46H122v.46Zm246.62,0h-.92v-.46h.92Zm-61.43,0v-.46h.92v.46Zm-183.36,0,0-.46h.91v.45Zm243,0H365v-.46h.92Zm-183.37,0h-.92v-.45h.92Zm-57.75,0,0-.46h.92v.46Zm239.29,0h-.92v-.46h.92Zm-142.11,0v0Zm-95.35,0v-.46h.91v.46Zm93.51,0v0Zm142.11,0h-.91v-.46h.91Zm-54.09,0v-.46h.91v.46Zm-89.85,0v0Zm-89.86,0v-.46h.92v.46Zm232,0h-.92v-.46h.92Zm-179.71,0h-.91v-.46h.92Zm-50.42,0v-.45h.92v.46Zm228.29,0h-.91v-.46h.92Zm-226.46,0v-.46H133v.46Zm177.87,0v-.46h.92v.45Zm46.76,0h-.92v-.46h.92Zm-222.8,0v-.46h.92v.45Zm44.93,0h-.92v-.46h.92Zm176,0H354v-.46h.92Zm-219.13,0v-.46h.91v.46Zm176,0v-.46h.92v.46Zm41.25,0h-.91v-.46h.91Zm-143.94,0v0Zm-71.52,0v-.46h.92v.46Zm39.43,0h-.92v-.46H177Zm174.2,0h-.91v-.46h.92Zm-143.94,0v0Zm-67.85,0v-.45h.92v.46Zm174.2,0v-.46h.91v.46Zm35.75,0h-.91v-.46h.92Zm-208.12,0v-.46h.92v.46Zm33.92,0h-.91v-.46h.91Zm172.37,0h-.92v-.46h.92Zm-204.46,0v-.46H144v.45Zm172.39,0,0-.46h.92v.46Zm30.24,0h-.92V453h.92Zm-172.37,0h-.92V453h.92Zm-28.42,0V453h.92v.46Zm199,0H343V453h.91Zm-26.58,0V453h.91v.46Zm-170.54,0V453h.92v.46Zm24.76,0h-.91V453h.92Zm170.53,0h-.92V453h.92Zm-193.46,0V453h.92v.46Zm170.55,0V453h.92v.45Zm21.07,0h-.92V453h.92Zm-170.53,0h-.91V453h.91Zm-19.25,0V453h.92v.46Zm188,0h-.92V453h.92Zm-17.42,0V453h.92v.46Zm-168.7,0V453h.92v.46Zm184.28,0h-.91V453h.91Zm-168.69,0H167V453h.92Zm-13.75,0V453H155v.46Zm168.7,0V453h.91v.46Zm-156.78,0h-.92V453H166Zm168.69,0h-.91V453h.91Zm-178.78,0V453h.92v.46Zm177,0H332V453h.92Zm-8.25,0V453h.92v.46Zm-160.45,0h-.91V453h.91Zm-6.42,0V453h.92v.46Zm168.7,0V453h.92v.46Zm4.59,0h-.92V453h.92Zm-1.84,0h-.91V453h.91Zm-166.86,0h-.92V453h.92Zm-1.83,0h-.92V453h.92Zm39.42,0v0Z"/></g></g></svg>