<svg xmlns="http://www.w3.org/2000/svg" viewBox="0 0 600 599.97"><defs><style>.cls-1{fill:none;stroke:#000;stroke-miterlimit:10;}</style></defs><title>cuello_cam_re</title><g id="Capa_2" data-name="Capa 2"><g id="Capa_1-2" data-name="Capa 1"><g id="cuello_cam_re"><path d="M0,596.8V600H3.08A10.35,10.35,0,0,1,0,596.8Z"/><path d="M3.19,0H0V3.08A10.27,10.27,0,0,1,3.19,0Z"/><path d="M600,3.19V0H596.9A10.39,10.39,0,0,1,600,3.19Z"/><path d="M596.82,600H600v-3.08A10.5,10.5,0,0,1,596.82,600Z"/><circle cx="304.33" cy="179.54" r="4.84"/><path d="M287.73,136.3a4.85,4.85,0,1,1-4.85,4.84A4.84,4.84,0,0,1,287.73,136.3Z"/><path d="M292.79,185.06V185l.13-21c7.56-12.21,13.17-16.85,22.79-18.22l0,.24v76.79H292.57Zm16.38-5.52a4.84,4.84,0,1,0-4.84,4.84A4.84,4.84,0,0,0,309.17,179.54Z"/><path d="M301,146.61C293.8,156,292.92,164,292.92,164l-.13,21c-1.78-15.45-15.13-46.3-22.5-51v-.1c5.85-1.44,10.18-2.46,10.18-2.46l-.06-.12,9.75-1.26S298.85,140,301,146.61Zm-8.42-5.47a4.85,4.85,0,1,0-4.84,4.85A4.84,4.84,0,0,0,292.57,141.14Z"/><path d="M317.24,132.4a82.6,82.6,0,0,1,14.42-6.82l.1,0c-1.21,2.4-2.41,4.76-3.57,7-2.37,4.64-4.6,8.94-6.56,12.64a52.13,52.13,0,0,0-5.92.45c-9.62,1.37-15.23,6-22.79,18.22,0,0,.88-8,8.07-17.36A58.32,58.32,0,0,1,317.24,132.4Z"/><path d="M252,71.62H357.6a64.56,64.56,0,0,1-2.5,6l-.27-.12h-101l-.39.16c-.25-.57-.46-1.08-.65-1.54C252.56,74.64,252.27,73.15,252,71.62Z"/><path d="M351,48.82c7.74,4.19,7.86,18.51,6.64,22.8H252c-.12-.71-.23-1.43-.32-2.16-.84-6.81-.13-14,9.73-21,0,0,71.95-.34,86.13-.69C349,48.21,350.05,48.55,351,48.82Z"/><path d="M280.4,131.34l.06.12s-4.33,1-10.18,2.46c-11.18,2.75-27.91,7-30.63,8.61-7.27-20.41-9.34-50.5-8-58.8,10.72-17,17.3-35.29,29.75-35.29-9.86,7-10.57,14.21-9.73,21,.09.73.2,1.45.32,2.16.24,1.53.53,3,.76,4.5.19.46.4,1,.65,1.54C259,90.37,279.16,129,280.4,131.34Z"/><path d="M341.64,105.79c5.55-11.3,10.57-21.78,13.46-28.17a64.56,64.56,0,0,0,2.5-6c1.22-4.29,1.1-18.61-6.64-22.8,4.55,1.36,4.22,1.12,9.41,6.89,0,0,7.95,9.68,18,27.32,0,13.15-1.73,47.39-9.34,60.19-.34.35-40.47-10.38-40.47-10.38l-.35-.18c1.16-2.27,2.36-4.63,3.57-7,3.27-6.47,6.66-13.29,9.87-19.83Z"/><path class="cls-1" d="M341.64,105.79c5.55-11.3,10.57-21.78,13.46-28.17a64.56,64.56,0,0,0,2.5-6c1.22-4.29,1.1-18.61-6.64-22.8a9.63,9.63,0,0,0-3.39-1.07c-14.18.35-86.13.69-86.13.69-9.86,7-10.57,14.21-9.73,21,.09.73.2,1.45.32,2.16.24,1.53.53,3,.76,4.5.19.46.4,1,.65,1.54,5.55,12.71,25.72,51.31,27,53.68l.06.12s-4.33,1-10.18,2.46c-11.18,2.75-27.91,7-30.63,8.61-7.27-20.41-9.34-50.5-8-58.8,10.72-17,17.3-35.29,29.75-35.29"/><path class="cls-1" d="M292.79,185l.13-21c7.56-12.21,13.17-16.85,22.79-18.22a52.13,52.13,0,0,1,5.92-.45c2-3.7,4.19-8,6.56-12.64,1.16-2.27,2.36-4.63,3.57-7,3.27-6.47,6.66-13.29,9.87-19.83"/><polyline class="cls-1" points="315.75 145.99 315.75 222.78 292.57 222.78 292.79 185.06"/><polyline class="cls-1" points="357.6 71.62 252.03 71.62 251.75 71.62"/><line class="cls-1" x1="354.83" y1="77.5" x2="253.83" y2="77.5"/><path class="cls-1" d="M328.54,132.84s40.13,10.73,40.47,10.38c7.61-12.8,9.34-47,9.34-60.19-10-17.64-18-27.32-18-27.32-5.19-5.77-4.86-5.53-9.41-6.89-.91-.27-2-.61-3.39-1.07"/><path class="cls-1" d="M292.92,186.46c0-.45-.07-.91-.13-1.4V185c-1.78-15.45-15.13-46.3-22.5-51"/><path class="cls-1" d="M292.92,164s.88-8,8.07-17.36a58.32,58.32,0,0,1,16.25-14.21,82.6,82.6,0,0,1,14.42-6.82"/><path class="cls-1" d="M341.69,105.73l-.05.06h0c-1.25,1.39-21,23.52-24.39,26.6l-.11.1"/><path class="cls-1" d="M301,146.71l0-.1c-2.14-6.57-10.84-16.53-10.84-16.53l-9.75,1.26-1,.12"/><circle class="cls-1" cx="304.33" cy="179.54" r="4.84"/><path class="cls-1" d="M292.57,141.14a4.85,4.85,0,1,1-4.84-4.84A4.85,4.85,0,0,1,292.57,141.14Z"/></g></g></g></svg>