<svg xmlns="http://www.w3.org/2000/svg" viewBox="0 0 600 599.97"><title>fondo_re</title><g id="Capa_2" data-name="Capa 2"><g id="Capa_1-2" data-name="Capa 1"><g id="fondo_re"><path d="M0,596.8V600H3.08A10.35,10.35,0,0,1,0,596.8Z"/><path d="M3.19,0H0V3.08A10.27,10.27,0,0,1,3.19,0Z"/><path d="M600,3.19V0H596.9A10.39,10.39,0,0,1,600,3.19Z"/><path d="M596.82,600H600v-3.08A10.5,10.5,0,0,1,596.82,600Z"/><path id="color" d="M528.07,171.17c-7.9-4.3-77.86-51.3-85.4-58.12s-51.3-23-58.48-25.83S367,79,367,79L358.72,75S329.17,92.6,304.6,92.6,250.48,75,250.48,75L242.22,79s-10,5.39-17.22,8.26-50.95,19-58.48,25.83S89,166.87,81.13,171.17,60.68,187,60.68,187s13.63,26.55,24.39,39.83S135,277,135,277a161.61,161.61,0,0,1,16.5-11.13c7.18-3.94,19.61-17.58,19.61-17.58v23L170,537.1s3.23,0,13.27,0,48.56-1,66.86-.32,54.48,0,54.48,0,36.18.72,54.48,0,56.15.28,66.19.32,13.28,0,13.28,0l-.42-265.82v-23s12.44,13.64,19.61,17.58A162.26,162.26,0,0,1,474.25,277s39.11-37,49.87-50.23S548.52,187,548.52,187,536,175.48,528.07,171.17Z"/></g></g></g></svg>