<svg xmlns="http://www.w3.org/2000/svg" viewBox="0 0 487.84 168.02"><title>mangas_altas_re</title><g id="Capa_2" data-name="Capa 2"><g id="Capa_1-2" data-name="Capa 1"><g id="mangas_altas_re"><path d="M122.7,49.38C122,29.61,117.33,11.87,112.24,0a34.88,34.88,0,0,0-6.4,4.05c-7.53,6.82-77.5,53.82-85.39,58.12S0,78,0,78s13.63,26.55,24.4,39.83S74.27,168,74.27,168a162.88,162.88,0,0,1,16.5-11.13c6.26-3.44,16.51-14.23,19-16.95C118,110.87,124.87,59.26,122.7,49.38Z"/><path d="M397.07,156.89A162.88,162.88,0,0,1,413.57,168s39.11-37,49.88-50.23S487.84,78,487.84,78s-12.55-11.48-20.45-15.79S389.53,10.87,382,4.05a34.23,34.23,0,0,0-6.27-4c-10.63,25.45-14.62,50.87-6.45,97.35,2.5,15.49,5.41,30.13,8.38,42.12C379.28,141.29,390.43,153.24,397.07,156.89Z"/></g></g></g></svg>