<svg xmlns="http://www.w3.org/2000/svg" viewBox="0 0 600 599.97"><defs><style>.cls-1{fill:#010201;}.cls-2{fill:none;stroke:#000;stroke-miterlimit:10;}</style></defs><title>borde_cam_re</title><g id="Capa_2" data-name="Capa 2"><g id="Capa_1-2" data-name="Capa 1"><g id="borde_cam_re"><path d="M0,596.8V600H3.08A10.35,10.35,0,0,1,0,596.8Z"/><path d="M3.19,0H0V3.08A10.27,10.27,0,0,1,3.19,0Z"/><path d="M600,3.19V0H596.9A10.39,10.39,0,0,1,600,3.19Z"/><path d="M596.82,600H600v-3.08A10.5,10.5,0,0,1,596.82,600Z"/><g id="costura"><path class="cls-1" d="M139.29,273.79l-.22-.35.38-.25.23.35Zm-.72-1.12-.5-.76.38-.25.5.77Zm-1-1.53-.49-.76.38-.25.5.76Zm-1-1.53-.5-.77.38-.25.5.77Zm-1.05-1.45-.62-.68.33-.31.63.68Zm-1.24-1.36-.62-.67.34-.31.61.67Zm-1.24-1.35-.62-.68.34-.3.62.67Zm-1.24-1.35-.61-.68.33-.3.62.67Zm-1.23-1.35-.62-.68.34-.31.62.68Zm-1.24-1.35-.61-.68.33-.31.62.68Zm-1.23-1.35-.62-.68.34-.31.62.68Zm-1.23-1.35-.62-.68.34-.31.61.68Zm-1.24-1.35-.62-.68.34-.31.62.68ZM124.41,256l-.62-.67.34-.31.62.68Zm-1.23-1.35-.62-.67.34-.31.61.67Zm-1.24-1.35-.61-.67.33-.31.62.67Zm-1.23-1.35-.62-.68.34-.3.62.67Zm-1.23-1.35-.62-.68.34-.31.62.68Zm-1.23-1.35-.62-.68.34-.31.62.68ZM117,247.88l-.62-.67.34-.31.62.68Zm-1.23-1.35-.62-.68.34-.31.61.68Zm-1.24-1.36-.61-.67.34-.31.61.68Zm-1.22-1.35-.62-.67.34-.31.61.67Zm-1.23-1.35-.62-.68.34-.31.62.68Zm-1.23-1.36-.61-.67.33-.31.62.68Zm-1.23-1.35-.61-.68.34-.31.61.68Zm-1.22-1.36-.62-.68.34-.3.61.67ZM107.19,237l-.61-.68.33-.3.62.68ZM106,235.69l-.61-.68.34-.31.61.68Zm-1.22-1.36-.61-.68.34-.31.61.68ZM103.52,233l-.62-.69.35-.3.61.68Zm-1.22-1.37-.6-.66.32-.32.61.68Zm-1.23-1.36-.6-.68.34-.31.6.68Zm-1.21-1.37-.61-.69.34-.3.61.69Zm-1.21-1.38-.59-.7.35-.29.59.69Zm-1.17-1.41-.58-.71.35-.29.58.71Zm-1.16-1.42-.56-.72.35-.28.57.71Zm-1.13-1.44-.56-.73.36-.28.56.73Zm-1.12-1.45-.55-.73.36-.28.56.73ZM93,220.31l-.55-.73.36-.28.55.73Zm-1.1-1.47-.55-.73.37-.27.55.73Zm-1.09-1.47-.54-.74.37-.27.54.74Zm-1.08-1.48-.54-.74.37-.26.54.74Zm-1.07-1.48-.54-.74.37-.27.54.75Zm-1.07-1.48-.53-.75.37-.26.53.74Zm-1.07-1.49-.52-.75.37-.26.53.74Zm-1-1.49-.53-.75.37-.26.53.74Zm-1.06-1.5-.52-.75.37-.26.53.75Zm-1-1.5-.52-.75.37-.26.53.75Zm-1-1.5-.52-.75.38-.26.52.75Zm-1-1.5-.52-.76.38-.26.52.76Zm-1-1.51-.5-.73.36-.28.52.75Zm-1-1.51-.52-.75.38-.26.51.75Zm-1-1.51-.5-.73.36-.28.51.76Zm-1-1.51-.51-.75.38-.26.51.75Zm-1-1.51-.52-.76.38-.26.51.76Zm-1-1.52-.51-.76.38-.25.51.76Zm-1-1.51-.51-.76.38-.26.51.76Zm-1-1.52-.51-.76.38-.26.51.76Zm-1-1.52-.51-.76.38-.26.51.76Zm-1-1.53-.5-.76.38-.25.5.76Zm-1-1.52-.51-.76.38-.25.51.76Zm-1-1.53-.51-.76.38-.25.51.76Zm-1-1.53-.51-.76.38-.25.51.76Zm-1-1.53-.51-.77.38-.25.51.77Z"/><path class="cls-1" d="M144.08,270.43s-.15-.31-.39-.77l.4-.21c.43.81.43.81.43.88Zm-.82-1.58c-.13-.25-.28-.52-.44-.8l.4-.22c.16.28.31.56.44.8Zm-.88-1.6-.45-.79.39-.23.46.8Zm-.92-1.57-.48-.78.39-.24.48.78Zm-1-1.54-.51-.75.37-.27c.17.25.35.5.52.77Zm-1.05-1.48-.13-.17-.45-.51.34-.31c.21.24.37.42.46.54l.14.17Zm-1.2-1.36-.63-.67.34-.32c.23.25.44.47.62.68ZM137,260l-.63-.67.33-.31.63.66Zm-1.26-1.34-.63-.66.34-.32.63.67Zm-1.26-1.33-.63-.66.33-.32.63.67ZM133.21,256l-.61-.65.15-.17.16-.16-.16.16.18-.15.61.65ZM132,254.64l-.63-.66.33-.32.63.67Zm-1.26-1.32-.63-.66.33-.32.63.66ZM129.42,252l-.63-.66.33-.31.63.66Zm-1.26-1.32-.63-.66.33-.31.63.66Zm-1.27-1.32-.63-.66.33-.32.63.66ZM125.63,248l-.63-.66.33-.32.63.66Zm-1.26-1.32-.64-.66.33-.32.63.66Zm-1.27-1.32-.63-.66.33-.32.63.66Zm-1.27-1.33-.63-.66.33-.31.63.66Zm-1.26-1.32-.63-.66.33-.31.63.66Zm-1.27-1.32-.63-.66.33-.31.63.66ZM118,240.1l-.64-.66.33-.32.64.66Zm-1.27-1.32-.63-.66.33-.32.63.66Zm-1.26-1.32-.63-.66.33-.32.63.66Zm-1.26-1.33-.64-.66.34-.31.63.66ZM113,234.81l-.63-.66.33-.32.63.67Zm-1.26-1.32-.63-.66.33-.32.63.66Zm-1.26-1.33-.63-.66.33-.31.63.66Zm-1.26-1.32-.63-.67.33-.31.63.66Zm-1.26-1.33-.63-.66.33-.32.63.67Zm-1.26-1.33-.63-.66.33-.32.63.67Zm-1.26-1.33-.63-.66.33-.32.63.67Zm-1.26-1.33-.62-.67.33-.31.63.67Zm-1.25-1.33-.63-.67.34-.32.62.67Zm-1.25-1.34-.62-.68.33-.31.62.67Zm-1.24-1.35-.62-.68.34-.31.61.68Zm-1.24-1.37-.6-.71.36-.29c.13.17.33.4.59.7ZM98,218.67l-.54-.75.37-.27.54.75ZM97,217.18l-.54-.74.36-.27.55.74Zm-1.08-1.48-.54-.74.36-.27.54.74Zm-1.08-1.48-.54-.74.37-.27.53.74Zm-1.08-1.48-.54-.74.37-.27.54.74Zm-1.08-1.48-.54-.74.37-.27L93,211Zm-1.08-1.48L91,209l.37-.27.54.74Zm-1.08-1.48-.54-.73.37-.27.52.71Zm-1.08-1.47-.54-.74.37-.27.54.74Zm-1.08-1.48-.54-.74.37-.27.54.74Zm-1.08-1.48-.54-.74.37-.27.54.74Zm-1.07-1.48-.54-.74.36-.27.54.74Zm-1.08-1.47-.54-.74.37-.27.53.74ZM84,199.44l-.54-.74.37-.27.54.74ZM82.92,198l-.54-.74.37-.27.54.74Zm-1.08-1.48-.54-.74.37-.27.54.74ZM80.76,195l-.54-.73.37-.27.54.74Zm-1.08-1.47-.54-.74.37-.27.54.74Zm-1.07-1.48-.54-.74.36-.27.54.74Zm-1.08-1.48-.54-.74.37-.27.53.74Zm-1.08-1.48-.54-.74.37-.27.54.74Zm-1.08-1.48-.54-.74.37-.26.54.73Zm-1.08-1.48-.54-.73.37-.27.54.74Zm-1.08-1.47-.54-.74.37-.27.54.74Zm-1.08-1.48-.54-.74.37-.27.54.74Zm-1.08-1.49-.54-.74.36-.27.55.75ZM70,180.21l-.54-.75.37-.27.54.75Z"/><path class="cls-1" d="M171.34,248.15l-.45-.11c.05-.18.12-.48.22-.89l.44.1C171.46,247.67,171.38,248,171.34,248.15Zm.42-1.79-.44-.1.21-.9.44.11Zm.42-1.79-.45-.1.21-.89.44.1Zm.41-1.78-.45-.1.2-.89.45.1ZM173,241l-.45-.1.2-.89.45.1Zm.4-1.78-.45-.1.2-.9.44.1Zm.39-1.79-.45-.1.19-.89.45.09Zm.38-1.79-.44-.1.19-.89.45.1Zm.39-1.79-.45-.09.19-.9.44.1Zm.37-1.79-.44-.09.18-.9.45.1Zm.37-1.79-.44-.09.18-.9.45.09Zm.37-1.79-.45-.09.18-.9.45.09Zm.36-1.8-.45-.09.18-.89.45.09Zm.36-1.79-.45-.09.18-.89.45.08Zm.35-1.79-.45-.09.18-.9.45.09Zm.35-1.8-.45-.09.17-.89.45.08Zm.34-1.8-.45-.08.17-.9.45.08Zm.34-1.79-.45-.09.16-.9.45.09Zm.33-1.8-.45-.08.16-.9.45.08Zm.32-1.8L178,214l.16-.9.45.08Zm.32-1.8-.45-.08.16-.9.45.08Zm.31-1.81-.45-.07.16-.9.45.07Zm.31-1.8-.45-.07.15-.91.45.08Zm.3-1.8-.45-.08.15-.9.45.08Zm.3-1.81-.45-.07.14-.9.45.07Zm.29-1.8-.45-.07.14-.91.45.07Zm.28-1.81-.45-.07.14-.9.45.07Zm.27-1.81-.45-.07.14-.9.45.07Zm.27-1.81-.45-.06.13-.91.45.07Zm.26-1.81-.45-.06.12-.91.46.06Zm.25-1.82-.45-.06.12-.91.45.07Zm.24-1.81-.45-.06.12-.91.45.06Zm.24-1.82-.45,0,.11-.91.45.06Zm.22-1.81-.45,0,.11-.91.45.06Zm.22-1.81-.46,0,.11-.91.45,0Zm.2-1.82-.45,0,.1-.91.45.05Zm.2-1.82-.46,0,.09-.91.46,0Zm.18-1.82-.46,0,.09-.91.45,0Zm.17-1.82-.46,0,.08-.91.46,0Zm.15-1.82-.45,0,.07-.91.46,0Zm.15-1.83-.46,0,.07-.91.45,0Zm.12-1.82-.45,0,.06-.91.45,0Zm.12-1.83-.46,0,.05-.92.46,0Zm.09-1.83-.46,0c0-.3,0-.61,0-.91l.46,0C183.9,170,183.88,170.27,183.87,170.57Zm.08-1.83h-.46l0-.91H184Zm.05-1.83h-.46c0-.3,0-.61,0-.91H184C184,166.3,184,166.61,184,166.91Zm0-1.83h-.45v-.91H184C184,164.47,184,164.78,184,165.08Zm-.45-1.83v-.91H184c0,.3,0,.61,0,.91Zm0-1.82,0-.91H184l0,.91Zm-.05-1.82,0-.91.46,0,0,.91Zm-.07-1.83c0-.3,0-.6,0-.91l.46,0c0,.3,0,.61,0,.91Zm-.09-1.82c0-.3,0-.61,0-.91l.46,0c0,.31,0,.61.05.92Zm-.11-1.82-.06-.91.46,0,.06.91Zm-.13-1.82c0-.3-.05-.61-.07-.91l.45,0c0,.31,0,.61.08.92ZM183,150.5c0-.3-.06-.6-.08-.91l.45,0c0,.3.06.61.08.91Zm-.17-1.81c0-.31-.07-.61-.1-.91l.46-.05.09.91Zm-.2-1.82c0-.3-.07-.6-.1-.9l.45-.06c0,.3.07.61.11.91Zm-.21-1.81-.12-.9.45-.06.12.9Zm-.24-1.81c0-.3-.08-.6-.13-.9l.45-.07c0,.3.09.6.13.91Zm-.26-1.81c0-.3-.09-.6-.14-.9l.45-.07c.05.3.1.6.14.91Zm-.28-1.8-.15-.9.45-.07.15.9Zm-.3-1.8c-.05-.3-.11-.6-.16-.9l.45-.08c0,.3.11.6.16.9Zm-.33-1.79c-.05-.3-.11-.6-.17-.9l.45-.09c.06.3.12.6.17.9Zm-.34-1.79-.18-.9.44-.09.19.9Zm-.37-1.79c-.07-.3-.13-.6-.19-.89l.44-.1c.07.29.13.59.2.89Zm-.39-1.78-.21-.89.45-.11c.07.3.13.6.2.9Zm-.42-1.78-.21-.89.44-.11c.07.3.14.59.22.89Zm-.43-1.77c-.08-.3-.16-.59-.23-.89l.44-.11c.08.29.15.59.23.89Zm-.47-1.77-.24-.88.44-.12c.08.29.17.59.24.88Zm-.48-1.76c-.09-.29-.17-.58-.25-.87l.43-.13c.09.29.17.58.26.88Zm-.51-1.75-.27-.87.44-.13c.09.28.18.58.26.87Zm-.54-1.74c-.09-.3-.19-.58-.28-.87l.44-.14c.09.28.18.58.28.87Zm-.56-1.74c-.1-.29-.2-.58-.29-.86l.43-.15c.09.29.19.57.29.87Zm-.59-1.72-.31-.86.43-.16.31.87Zm-.62-1.72-.32-.85.42-.16c.11.27.21.56.32.85Zm-.65-1.7-.34-.85.42-.17.34.85Zm-.69-1.69-.36-.84.42-.18.36.84Zm-.73-1.67c-.25-.54-.39-.82-.39-.82l.4-.21s.15.29.4.84Z"/><path class="cls-1" d="M469.9,273.79l-.38-.25.22-.35.39.25Zm.72-1.12-.38-.24.5-.77.38.25Zm1-1.53-.38-.25.5-.76.38.25Zm1-1.53-.39-.25.5-.77.38.25Zm1-1.45-.33-.31.62-.68.34.31Zm1.25-1.36-.34-.31.62-.67.34.31Zm1.23-1.35-.33-.31.61-.67.34.3Zm1.24-1.35-.34-.31.62-.68.34.31Zm1.24-1.35-.34-.31.62-.68.33.31Zm1.23-1.35-.34-.31.62-.68.34.31Zm1.24-1.35-.34-.31.61-.68.34.31Zm1.23-1.35-.34-.31.62-.68.34.31Zm1.23-1.36-.34-.3.62-.68.34.31Zm1.23-1.35-.33-.3.61-.68.34.31Zm1.24-1.35-.34-.31.62-.67.33.31Zm1.23-1.35-.34-.31.62-.67.34.31Zm1.23-1.35-.33-.31.61-.67.34.3Zm1.23-1.35-.33-.31.61-.68.34.31Zm1.24-1.35-.34-.31.61-.68.34.31Zm1.23-1.36-.34-.31.61-.67.34.31Zm1.23-1.35-.34-.31.62-.68.33.31Zm1.23-1.36-.34-.3.62-.68.33.31Zm1.23-1.35-.34-.31.61-.67.34.31Zm1.23-1.35-.34-.31.61-.68.34.31Zm1.22-1.36-.33-.3.61-.68.34.3Zm1.23-1.35-.34-.31.62-.68.34.31Zm1.23-1.36-.34-.31.61-.67.34.3ZM502,237l-.34-.3.61-.68.34.3Zm1.22-1.35-.34-.31.61-.68.34.31Zm1.22-1.36-.33-.31.61-.68.34.31Zm1.23-1.36-.34-.31L506,232l.34.3Zm1.22-1.37-.34-.3.59-.67.19.14.16.17Zm1.22-1.36-.34-.31.61-.68.34.31Zm1.22-1.37-.34-.3.6-.69.34.3Zm1.2-1.38-.35-.3c.2-.22.39-.45.59-.69l.35.29Zm1.18-1.41-.36-.29c.19-.23.39-.46.58-.71l.36.29Zm1.15-1.42-.36-.29.57-.71.36.28Zm1.13-1.44-.36-.28.56-.73.36.28Zm1.12-1.45-.36-.28c.18-.24.37-.48.55-.73l.37.28Zm1.11-1.46-.37-.28.55-.73.37.28Zm1.09-1.47-.36-.27.54-.73.37.27Zm1.09-1.47-.36-.27.54-.74.36.27Zm1.08-1.48-.37-.26.54-.74.37.26Zm1.08-1.48-.37-.26.53-.75.37.27Zm1.07-1.48-.38-.27.54-.74.37.26Zm1.06-1.49-.37-.27.53-.74.37.26Zm1.06-1.49-.38-.27.53-.75.37.27Zm1-1.5-.37-.26.52-.75.38.26Zm1.05-1.5-.37-.26.52-.75.38.26Zm1-1.5-.38-.26.52-.75.38.26Zm1-1.5-.38-.26.52-.76.38.26Zm1-1.51-.38-.26.51-.73.2.11.17.15Zm1-1.51-.38-.26.52-.75.37.26Zm1-1.51-.38-.25.5-.73.21.1.17.15Zm1-1.51-.38-.26.52-.75.37.25Zm1-1.51-.38-.26.51-.76.38.26Zm1-1.52-.38-.25.52-.76.37.25Zm1-1.51-.38-.26.51-.76.38.26Zm1-1.52-.38-.26.51-.76.38.26Zm1-1.52-.37-.26.5-.76.38.26Zm1-1.53-.38-.25.51-.76.38.25Zm1-1.52-.38-.25.5-.76.38.25Zm1-1.53-.38-.25.5-.76.38.25Zm1-1.53-.38-.25.5-.76.38.25Zm1-1.53-.38-.25.5-.77.38.25Z"/><path class="cls-1" d="M465.11,270.43l-.43-.1c0-.07,0-.07.42-.88l.41.21C465.26,270.12,465.12,270.41,465.11,270.43Zm.82-1.58-.4-.22c.14-.24.28-.52.44-.8l.4.22C466.21,268.33,466.07,268.6,465.93,268.85Zm.88-1.6-.39-.22c.14-.26.3-.53.45-.8l.4.23Zm.92-1.57-.39-.24.48-.78.39.24Zm1-1.54-.38-.25.52-.77.37.27Zm1.05-1.48-.36-.28.14-.17c.09-.12.25-.3.47-.54l.34.31-.45.51ZM471,261.3l-.34-.31.63-.68.33.32C471.35,260.87,471.14,261.09,471,261.3ZM472.2,260l-.33-.32.63-.66.33.31Zm1.26-1.34-.33-.31.63-.67.33.32Zm1.26-1.33-.33-.31.63-.67.33.32ZM476,256l-.33-.32.62-.65.34.3Zm1.26-1.33-.33-.31.63-.67.34.32Zm1.27-1.32-.33-.32.63-.66.33.32Zm1.26-1.33-.33-.31.63-.66.33.31Zm1.26-1.32-.33-.31.64-.66.33.31Zm1.27-1.32L482,249l.63-.66.33.32Zm1.26-1.32-.33-.32.64-.66.33.32Zm1.27-1.32-.33-.32.63-.66.33.32Zm1.26-1.32-.33-.32.64-.66.33.31Zm1.27-1.33-.33-.31.63-.66.33.31Zm1.26-1.32-.33-.31.64-.66.33.31Zm1.27-1.32-.33-.31.63-.66.33.31Zm1.27-1.32-.33-.32.63-.66.33.32Zm1.26-1.32-.33-.32.63-.66.33.32Zm1.26-1.32-.33-.32.64-.66.33.32Zm1.27-1.33-.33-.31.63-.66.33.31Zm1.26-1.32-.33-.31.63-.67.33.32Zm1.26-1.32-.33-.32.63-.66.33.32Zm1.27-1.33-.34-.31.64-.66.33.31Zm1.26-1.32-.33-.32.63-.66.33.31Zm1.26-1.33-.33-.31.63-.67.33.32Zm1.26-1.33-.33-.31.62-.67.34.32Zm1.25-1.33-.33-.31.63-.67.33.32Zm1.26-1.33-.33-.31.63-.67.33.31Zm1.25-1.33-.33-.32.63-.67.33.32Zm1.25-1.34-.33-.32.62-.67.34.31Zm1.25-1.35-.34-.31.62-.68.34.31Zm1.23-1.37-.34-.3.59-.7.35.28C510.48,219.59,510.27,219.83,510,220.13Zm1.15-1.46-.36-.27.54-.75.37.27Zm1.09-1.49-.37-.27.54-.74.37.27Zm1.08-1.48-.37-.27.54-.74.37.27Zm1.08-1.48L514,214l.54-.74.37.27Zm1.08-1.48-.37-.27.54-.74.37.27Zm1.08-1.48-.37-.27.54-.74.37.27Zm1.08-1.48-.37-.27.54-.74.36.27Zm1.1-1.51-.21-.1-.18-.13.53-.74.37.27Zm1-1.44-.37-.27.54-.74.37.27Zm1.08-1.48-.37-.27.54-.74.37.27Zm1.08-1.48-.37-.27.54-.74.37.27Zm1.08-1.48-.37-.27.54-.74.37.27Zm1.08-1.48-.37-.26.54-.74.37.27Zm1.08-1.47-.37-.27.54-.74.37.27Zm1.08-1.48-.37-.27.54-.74.37.27Zm1.07-1.48-.37-.27.54-.74.37.27Zm1.08-1.48-.37-.27.54-.73.37.27Zm1.08-1.47-.37-.27.54-.74.37.27Zm1.08-1.48-.37-.27.54-.74.37.27Zm1.08-1.48-.37-.27.54-.74.37.27Zm1.08-1.48-.37-.27.54-.74.37.27Zm1.08-1.48-.37-.27.54-.74.37.27Zm1.08-1.48-.37-.26.54-.74.37.27Zm1.08-1.47-.37-.27.54-.74.37.27Zm1.07-1.48-.36-.27.54-.74.37.27Zm1.09-1.49-.37-.26.54-.75.37.27Zm1.08-1.48-.37-.27.55-.75.37.27Z"/><path class="cls-1" d="M437.86,248.15c-.05-.18-.12-.48-.22-.9l.45-.1c.09.41.17.71.21.89Zm-.43-1.79-.21-.89.45-.11.2.89Zm-.41-1.79-.21-.89.45-.1.2.89Zm-.41-1.78-.2-.89.44-.1.2.89ZM436.2,241l-.19-.89.44-.1.2.89Zm-.39-1.78-.2-.9.45-.1.19.9Zm-.39-1.79-.2-.9.45-.09.19.89Zm-.39-1.79-.19-.89.45-.1.19.89Zm-.38-1.79-.19-.89.45-.1.19.9Zm-.38-1.79-.18-.89.44-.1.19.9Zm-.37-1.79-.18-.9.44-.09.19.9Zm-.37-1.79-.18-.9.45-.09.18.9Zm-.36-1.8-.18-.89.45-.09.18.89Zm-.36-1.79-.17-.9.45-.08.17.89Zm-.35-1.79-.17-.9.45-.09.17.9Zm-.34-1.8-.18-.9.45-.08.17.89Zm-.35-1.8-.16-.9.44-.08.17.9Zm-.33-1.79-.17-.9.45-.09.17.9Zm-.33-1.8-.17-.9.45-.08.17.9Zm-.33-1.8-.16-.9.45-.08.16.9Zm-.32-1.8-.15-.9.45-.08.15.9Zm-.31-1.81-.16-.9.45-.07.16.9Zm-.31-1.8-.15-.9.45-.08.15.91Zm-.3-1.8-.15-.9.45-.08.15.9Zm-.3-1.81-.14-.9.45-.07.15.9Zm-.28-1.8-.15-.91.46-.07.14.91Zm-.29-1.81-.13-.9.45-.07.14.9Zm-.27-1.81-.13-.9.45-.07.13.9Zm-.27-1.81L428,197l.46-.07.13.91Zm-.26-1.81-.12-.91.45-.06.13.91Zm-.25-1.82-.12-.9.45-.06.12.9Zm-.24-1.81-.12-.91.45-.06.12.91Zm-.23-1.82-.12-.9.46-.06.11.91Zm-.23-1.81-.11-.9.46-.06.1.91Zm-.21-1.81-.11-.91.46,0,.1.91Zm-.21-1.82-.1-.91.46,0,.1.9Zm-.19-1.82-.09-.91.45,0,.09.91Zm-.18-1.82-.09-.91.46,0,.08.91ZM426,179.7l-.08-.91.45,0,.08.91Zm-.16-1.82-.07-.91.45,0,.08.91Zm-.14-1.83-.07-.91.46,0,.06.91Zm-.13-1.82-.06-.91.46,0,.06.91Zm-.11-1.83-.05-.91.45,0,.05.92Zm-.1-1.83c0-.3,0-.61,0-.91l.46,0c0,.3,0,.61,0,.91Zm-.07-1.83,0-.91h.45l0,.91Zm-.06-1.83c0-.3,0-.61,0-.91h.46c0,.3,0,.61,0,.91Zm0-1.83c0-.3,0-.61,0-.91h.46c0,.3,0,.6,0,.91Zm.45-1.83h-.46c0-.3,0-.61,0-.91h.46C425.61,162.65,425.61,163,425.61,163.25Zm0-1.82h-.46l0-.91h.45Zm.05-1.82-.46,0c0-.3,0-.61,0-.91l.45,0Zm.07-1.83-.46,0c0-.3,0-.61,0-.91l.45,0C425.78,157.18,425.76,157.48,425.75,157.78Zm.09-1.82-.46,0,.06-.92.45,0C425.87,155.35,425.86,155.66,425.84,156Zm.11-1.82-.46,0c0-.31.05-.61.07-.91l.45,0Zm.13-1.82-.45,0c0-.31,0-.61.07-.92l.46,0C426.13,151.71,426.11,152,426.08,152.32Zm.15-1.82-.45,0c0-.3.05-.61.08-.91l.46,0Zm.18-1.81-.46-.05c0-.3.07-.61.1-.91l.45.05Zm.19-1.82-.45-.05c0-.3.07-.61.1-.91l.46.06C426.67,146.27,426.64,146.57,426.6,146.87Zm.22-1.81-.46-.06.12-.9.45.06C426.89,144.46,426.86,144.76,426.82,145.06Zm.23-1.81-.45-.06c0-.31.09-.61.13-.91l.45.07C427.14,142.65,427.1,143,427.05,143.25Zm.26-1.81-.45-.06c.05-.31.09-.61.14-.91l.45.07C427.4,140.84,427.36,141.14,427.31,141.44Zm.28-1.8-.45-.07.15-.9.45.07Zm.31-1.8-.45-.08c.05-.3.1-.6.16-.9l.44.08Zm.32-1.79-.45-.09c.06-.3.11-.6.17-.9l.45.09C428.33,135.45,428.28,135.75,428.22,136.05Zm.35-1.79-.45-.09.18-.9.45.09Zm.36-1.79-.44-.1c.06-.3.13-.6.19-.89l.45.1C429.06,131.87,429,132.17,428.93,132.47Zm.4-1.78-.45-.1.21-.9.44.11C429.46,130.09,429.39,130.39,429.33,130.69Zm.41-1.78-.44-.11.21-.89.45.11C429.88,128.32,429.81,128.61,429.74,128.91Zm.44-1.77-.44-.11c.07-.3.15-.6.22-.89l.45.11C430.33,126.55,430.25,126.84,430.18,127.14Zm.46-1.77-.44-.12.24-.88.44.12Zm.49-1.76-.44-.12c.08-.3.17-.59.25-.88l.44.13C431.29,123,431.21,123.32,431.13,123.61Zm.51-1.75-.44-.13c.09-.29.18-.59.27-.87l.43.13C431.81,121.28,431.73,121.57,431.64,121.86Zm.53-1.74-.43-.14c.09-.29.18-.59.28-.87l.43.14C432.36,119.54,432.27,119.82,432.17,120.12Zm.57-1.74-.44-.14c.1-.3.2-.58.3-.87l.43.15C432.93,117.8,432.83,118.09,432.74,118.38Zm.59-1.72-.43-.15.3-.87.43.16C433.53,116.08,433.43,116.36,433.33,116.66Zm.62-1.72-.43-.16.32-.85.43.16C434.16,114.36,434.06,114.65,434,114.94Zm.65-1.7-.43-.17c.12-.3.24-.58.34-.85l.43.17Zm.69-1.69-.42-.18.36-.84.42.18Zm.73-1.67-.42-.19.4-.84.41.21S436.27,109.34,436,109.88Z"/><path class="cls-1" d="M306.24,532.8h-.92v-.45h.92Zm-1.84,0h-.91v-.45h.88Zm-1.83,0h-.92v-.45h.92Zm-1.83,0h-.92v-.45h.92Zm7.34,0h-.92v-.45h.92Zm.92,0v-.45h.91v.45Zm-10.09,0H298v-.45h.92Zm11.93,0v-.45h.91v.45Zm-13.76,0h-.92v-.46h.92Zm15.59,0v-.46h.91v.46Zm-17.42,0h-.91v-.46h.91Zm19.25,0v-.46h.92v.46Zm-21.08,0h-.92v-.46h.92Zm22.92,0v-.46h.91v.46Zm-24.76,0h-.91v-.46h.91Zm26.59,0v-.46h.92v.46Zm-28.42,0h-.92v-.46h.92Zm30.25,0v-.46h.92v.46Zm-32.08,0H287v-.45h.92Zm33.92,0v-.45h.91v.45Zm-35.76,0h-.91v-.46h.92Zm37.59,0v-.46h.92v.46Zm-39.42,0h-.92v-.46h.92Zm41.25,0v-.46h.92v.46Zm-43.08,0h-.92v-.46h.92Zm44.92,0v-.46h.91v.46Zm-46.76,0h-.91v-.45h.91Zm48.59,0v-.45h.92v.46Zm-50.42,0h-.91v-.46h.91Zm52.25,0v-.46h.92v.46Zm-54.08,0H276v-.46h.92Zm55.92,0v-.46h.91v.46Zm-57.76,0h-.91v-.45h.91Zm59.6,0v-.45h.91v.46Zm-61.43,0h-.92v-.46h.92Zm63.25,0v-.46h.92v.46Zm-65.08,0h-.92v-.45h.92Zm66.92,0v-.45h.91v.46Zm-68.76,0h-.9v-.46h.9Zm70.59,0v-.46h.92v.46Zm-72.42,0h-.9l0-.23,0-.22h.9Zm74.26,0v-.45h.92v.46Zm-76.09,0H265v-.46h.92Zm77.94,0,0-.23,0-.23h.89v.45Zm-79.78,0h-.92v-.46h.91Zm81.59,0v-.46h.92v.46Zm-83.42,0h-.92v-.45h.92Zm85.26,0v-.46h.91v.46Zm-87.1,0h-.88l0-.23,0-.23h.89Zm88.93,0v-.45h.92v.46Zm-90.76,0h-.92v-.46h.91Zm92.59,0v-.46h.92v.46Zm-94.42,0h-.92v-.46h.92Zm96.26,0v-.46h.91v.46Zm-98.1,0H254v-.46h.91Zm99.93,0v-.46h.92v.46Zm-101.76,0h-.92v-.46h.92Zm103.6,0v-.46h.92v.45Zm-105.44,0h-.91v-.46h.92Zm107.27,0v-.46h.92v.46Zm-109.1,0h-.92v-.46h.92Zm110.94,0v-.46h.92v.46Zm-112.78,0h-.92v-.46h.92Zm114.61,0v-.45l.91,0v.46Zm-192.56,0v-.46h.93v.46Zm268.67,0h-.92v-.46h.92Zm-192.56,0-.91,0v-.45h.91Zm-74.27,0v-.46h.92v.46Zm265,0h-.92v-.46h.92Zm-263.16,0v-.46h.91v.46Zm261.32,0h-.92v-.46h.92Zm-70.6,0v-.46h.92v.46Zm-188.89,0v-.46h.92v.46Zm257.65,0h-.91v-.46h.92Zm-255.81,0v-.46h.91v.46Zm254,0H430v-.46H431Zm-187,0H243v-.46h.92Zm-65.06,0,0-.46h.92v.46Zm250.27,0h-.91v-.45h.92Zm-248.45,0,0-.45h.91v.46Zm246.62,0h-.92v-.46h.92Zm-61.43,0v-.46h.91v.46Zm-183.36,0,0-.46h.92v.45Zm243,0h-.91v-.46h.92Zm-183.37,0h-.92v-.45h.91Zm-57.74,0,0-.46h.91v.46Zm239.28,0h-.92v-.46h.92Zm-142.11,0v0Zm-95.34,0,0-.46h.92v.45Zm93.51,0v0Zm142.11,0h-.92v-.46h.92Zm-54.1,0v-.46h.92v.46Zm-89.85,0v0Zm-89.86,0v-.46h.92v.46Zm232,0H419v-.46h.91Zm-179.7,0h-.92v-.46h.92Zm-50.43,0v-.46h.92v.45Zm228.3,0h-.92v-.46h.92Zm-226.47,0v-.46h.92v.46Zm177.88,0v-.46h.92v.46Zm46.75,0h-.91v-.46h.92Zm-222.79,0v-.46h.91v.45Zm44.92,0h-.91v-.46h.91Zm176,0h-.91v-.46h.92Zm-219.13,0v-.46h.92v.46Zm176,0v-.46h.91v.46Zm41.26,0h-.91v-.46h.92Zm-143.94,0v0Zm-71.52,0v-.46h.92v.46Zm39.42,0h-.92v-.46h.92Zm174.2,0h-.91v-.45h.91Zm-143.94,0v0Zm-67.85,0v-.45h.92v.46Zm174.2,0v-.46h.92v.46Zm35.76,0H408v-.46h.92Zm-208.13,0v-.46h.92v.46Zm33.93,0h-.92v-.46h.92Zm172.36,0h-.91v-.46h.92Zm-204.45,0v-.46h.91v.45Zm172.39,0,0-.46h.91v.45Zm30.23,0h-.92v-.45h.92Zm-172.37,0H232v-.46h.91Zm-28.42,0v-.45h.91v.46Zm199,0h-.92v-.46h.92Zm-26.59,0v-.46h.92v.46Zm-170.54,0v-.46h.91v.46Zm24.76,0h-.9l0-.46h.92Zm170.53,0h-.92v-.46h.92Zm-193.46,0v-.46h.92v.46Zm170.55,0v-.46h.92v.46Zm21.07,0h-.91v-.46h.91Zm-170.52,0h-.92v-.45h.92Zm-19.26,0v-.46h.92v.45Zm188,0H397V532h.92Zm-17.41,0v-.45h.91v.46Zm-168.7,0V532h.91v.46Zm184.28,0h-.92V532h.92Zm-168.7,0h-.91V532h.91Zm-13.75,0V532h.92v.46Zm168.7,0V532h.92v.46Zm-156.78,0h-.91V532h.92Zm168.7,0h-.92V532h.92Zm-178.79,0V532h.92v.46Zm177,0h-.91V532h.92Zm-8.25,0V532h.92v.46Zm-160.44,0h-.92V532h.92Zm-6.42,0V532h.92v.46Zm168.7,0V532h.91v.46Zm4.58,0h-.92V532h.92Zm-1.83,0h-.92V532h.92Zm-166.87,0H221V532h.91Zm-1.83,0h-.92V532h.92Zm39.43,0v0Z"/><path class="cls-1" d="M306.24,527.78h-.92v-.46h.92Zm-1.84,0h-.91v-.46h.88Zm-1.83,0h-.92v-.46h.92Zm5.51,0h-.92v-.46h.92Zm-7.34,0h-.92v-.46h.92Zm8.26,0v-.46h.91v.45Zm-10.09,0H298v-.45h.92Zm11.93,0v-.45h.91v.45Zm1.83,0v-.45h.91v.45Zm-15.59,0h-.92v-.45h.92Zm-1.83,0h-.91v-.46h.91Zm19.25,0v-.46h.92v.46Zm-21.08,0h-.92v-.46h.92Zm22.92,0v-.46h.91v.46Zm-24.76,0h-.91v-.46h.91Zm26.59,0v-.46h.92v.46Zm-28.42,0h-.92v-.46h.92Zm30.25,0v-.46h.92v.46Zm-32.08,0H287v-.46h.92Zm33.92,0v-.46h.91v.45Zm-35.76,0h-.91v-.45h.92Zm37.59,0v-.45h.92v.46Zm-39.42,0h-.92v-.46h.92Zm41.25,0v-.46h.92v.46Zm-43.08,0h-.92v-.46h.92Zm44.92,0v-.46h.91v.46Zm-46.76,0h-.91v-.46h.91Zm48.59,0v-.46h.92v.45Zm-50.42,0h-.91v-.46h.91Zm52.25,0v-.46h.92v.46Zm-54.08,0H276v-.46h.92Zm55.92,0v-.46h.91v.46Zm-57.76,0h-.91v-.45h.91Zm59.6,0v-.45h.91v.46Zm-61.43,0h-.92v-.46h.92Zm63.25,0v-.46h.92v.46Zm-65.08,0h-.92v-.46h.92Zm66.92,0v-.46h.91v.46Zm-68.76,0h-.9v-.46h.9Zm70.59,0v-.46h.92v.46Zm-72.42,0h-.9l0-.22,0-.23h.9Zm74.26,0v-.45h.92v.46Zm-76.09,0H265v-.46h.92Zm77.94,0,0-.23,0-.23h.89v.46Zm-79.78,0h-.92v-.46h.91Zm81.59,0v-.46h.92v.46Zm-83.42,0h-.92v-.45h.92Zm85.26,0v-.45h.91v.46Zm-87.1,0h-.88l0-.23,0-.23h.89Zm88.93,0v-.46h.92v.46Zm-90.76,0h-.92v-.46h.91Zm92.59,0v-.46h.92v.46Zm-94.42,0h-.92v-.46h.92Zm96.26,0v-.46h.91v.46Zm-98.1,0H254v-.46h.91Zm99.93,0v-.46h.92v.46Zm-101.76,0h-.92v-.45h.92Zm103.6,0v-.45h.92v.46Zm-105.44,0h-.91v-.46h.92Zm107.27,0v-.46h.92v.46Zm-109.1,0h-.92v-.46h.92Zm110.94,0v-.46h.92v.46Zm-112.78,0h-.92v-.46h.92Zm114.61,0v-.46l.91,0v.46Zm-192.56,0v-.45h.93v.46Zm268.67,0h-.92v-.46h.92Zm-192.56,0h-.91v-.46h.91Zm-74.27,0v-.46h.92v.46Zm265,0h-.92v-.46h.92Zm-263.16,0v-.46h.91v.46Zm261.32,0h-.92v-.46h.92Zm-70.6,0v-.45l.92,0v.46Zm-188.89,0v-.46h.92v.46Zm257.65,0h-.91v-.46h.92Zm-255.81,0v-.46h.91v.45Zm254,0H430v-.46H431Zm-187,0H243v-.46h.92Zm-65.06,0,0-.46h.92v.46Zm250.27,0h-.91v-.45h.92Zm-248.45,0,0-.45h.91v.46Zm246.62,0h-.92v-.46h.92Zm-61.43,0v-.46h.91v.46Zm-183.36,0,0-.46h.92v.46Zm243,0h-.91v-.45h.92Zm-183.37,0h-.92v-.46h.91Zm-57.74,0,0-.45h.91v.46Zm239.28,0h-.92v-.46h.92Zm-142.11,0v0Zm-95.34,0,0-.46h.92v.45Zm93.51,0v0Zm142.11,0h-.92v-.46h.92Zm-54.1,0v-.45h.92v.46Zm-89.85,0v0Zm-89.86,0v-.46h.92v.46Zm232,0H419v-.46h.91Zm-179.7,0h-.92v-.46h.92Zm-50.43,0v-.46h.92v.45Zm228.3,0h-.92v-.46h.92Zm-226.47,0v-.46h.92v.46Zm177.88,0v-.46h.92v.46Zm46.75,0h-.91v-.46h.92Zm-222.79,0v-.46h.91v.46Zm44.92,0h-.91V527h.91Zm176,0h-.91v-.45h.92Zm-219.13,0v-.45h.92v.46Zm176,0V527h.91v.46Zm41.26,0h-.91V527h.92Zm-143.94,0v0Zm-71.52,0V527h.92v.46Zm39.42,0h-.92V527h.92Zm174.2,0h-.91V527h.91Zm-143.94,0v0Zm-67.85,0V527h.92v.45Zm174.2,0V527h.92v.46Zm35.76,0H408V527h.92Zm-208.13,0V527h.92v.46Zm33.93,0h-.92V527h.92Zm172.36,0h-.91V527h.92Zm-204.45,0V527h.91v.46Zm172.39,0,0-.46h.91v.45Zm30.23,0h-.92V527h.92Zm-172.37,0H232V527h.91Zm-28.42,0V527h.91v.46Zm199,0h-.92V527h.92Zm-26.59,0V527h.92v.46Zm-170.54,0V527h.91v.46Zm24.76,0h-.9l0-.46h.92Zm170.53,0h-.92V527h.92Zm-193.46,0V527h.92v.46Zm170.55,0V527h.92v.46Zm21.07,0h-.91V527h.91Zm-170.52,0h-.92V527h.92Zm-19.26,0V527h.92v.46Zm188,0H397V527h.92Zm-17.41,0V527h.91v.45Zm-168.7,0V527h.91v.45Zm184.28,0h-.92V527h.92Zm-168.7,0h-.91V527h.91Zm-13.75,0V527h.92v.46Zm168.7,0V527h.92v.46Zm-156.78,0h-.91V527h.92Zm168.7,0h-.92V527h.92Zm-178.79,0V527h.92v.46Zm177,0h-.91V527h.92Zm-8.25,0V527h.92v.46Zm-160.44,0h-.92V527h.92Zm-6.42,0V527h.92v.46Zm168.7,0V527h.91v.46Zm4.58,0h-.92V527h.92Zm-1.83,0h-.92V527h.92Zm-166.87,0H221V527h.91Zm-1.83,0h-.92V527h.92Zm39.43,0v0Z"/></g><path class="cls-1" d="M549.13,186.29c-.51-.48-12.73-11.61-20.63-15.92-3.72-2-22.1-14.1-42.75-28.07-18-12.18-38.61-26.44-42.46-29.93-6.57-5.94-39.48-18.58-53.53-24l-5.23-2c-2-.81-4.25-1.82-6.44-2.85a6,6,0,0,1-.11,1c2.11,1,4.27,2,6.21,2.74,7.18,2.87,50.95,19,58.48,25.83s77.5,53.82,85.4,58.12S548.52,187,548.52,187s-13.64,26.55-24.4,39.83S474.25,277,474.25,277a162.26,162.26,0,0,0-16.51-11.13c-7.17-3.94-19.61-17.58-19.61-17.58v23l.42,265.82s-1.44,0-5.37,0c-2,0-4.56,0-7.91,0-7.4,0-29.89-.58-48.54-.58-6.66,0-12.84.07-17.65.26-6.1.24-14.19.32-22.26.32-16.14,0-32.22-.32-32.22-.32s-16.08.32-32.23.32c-8.07,0-16.15-.08-22.25-.32-4.82-.19-11-.26-17.77-.26-18.84,0-41.69.55-49.09.58-3.35,0-5.94,0-7.9,0-3.94,0-5.37,0-5.37,0l1.07-265.82v-23S158.63,262,151.45,265.89A161.61,161.61,0,0,0,135,277s-39.11-37-49.88-50.23S60.68,187,60.68,187s12.55-11.48,20.45-15.79,77.85-51.3,85.39-58.12,51.31-23,58.48-25.83c2.23-.9,4.73-2,7.13-3.17a5.56,5.56,0,0,1,.27-1.14c-2.58,1.24-5.33,2.49-7.74,3.46l-5.22,2c-14.06,5.4-47,18-53.53,24-3.86,3.49-24.47,17.75-42.46,29.93-20.66,14-39,26-42.76,28.07-7.9,4.31-20.12,15.44-20.63,15.92l-.52.47.32.62c.14.26,13.8,26.79,24.5,40s49.57,49.95,50,50.32l.56.54.62-.48a163,163,0,0,1,16.39-11c5.77-3.18,14.65-12.25,18.26-16.07v20.65L169.07,537.1v.9l.91,0h13.29c2.62,0,7.1-.09,12.78-.18,10.18-.17,24.13-.4,36.3-.4,7.39,0,13.36.08,17.73.26,5.41.21,12.91.32,22.29.32,15.73,0,31.6-.31,32.23-.32s16.49.32,32.22.32c9.38,0,16.88-.11,22.29-.32,4.37-.18,10.3-.26,17.62-.26,12,0,25.76.23,35.79.4,5.65.09,10.12.16,12.75.18h13.29l.9,0v-.9L439,271.28V250.63c3.61,3.82,12.5,12.89,18.26,16.07a161.73,161.73,0,0,1,16.39,11l.62.48.57-.54c.39-.37,39.27-37.15,50-50.32s24.36-39.72,24.5-40l.32-.62Z"/><path class="cls-2" d="M315.74,146v76.79H292.57l.35-58.8c9-14.53,15.21-18.34,28.71-18.68,12.1-22.83,34.59-68.84,36-73.68s1-22.48-10-23.87c-14.18.35-86.13.7-86.13.7-9.86,7-10.57,14.2-9.73,21,.28,2.27.73,4.5,1.08,6.66,4.5,11.07,27.67,55.34,27.67,55.34s-36.66,8.65-40.81,11.07c-7.27-20.41-9.34-50.5-8-58.8,10.72-17,17.3-35.28,29.75-35.28"/><line class="cls-2" x1="357.6" y1="71.62" x2="251.75" y2="71.62"/><line class="cls-2" x1="354.83" y1="77.5" x2="253.83" y2="77.5"/><path class="cls-2" d="M328.54,132.85s40.13,10.72,40.47,10.37c7.61-12.8,9.34-47,9.34-60.18-10-17.65-18-27.33-18-27.33-6.23-6.92-4.5-5.19-12.8-8"/><path class="cls-2" d="M292.91,186.46c-1-14.87-15-47.6-22.62-52.44"/><path class="cls-2" d="M292.92,164s2.76-25.25,38.74-38.4"/><path class="cls-2" d="M341.69,105.74s-21.45,24-24.56,26.76"/><path class="cls-2" d="M301,146.71c-2.08-6.57-10.87-16.63-10.87-16.63l-10.72,1.38"/><circle class="cls-2" cx="304.33" cy="179.54" r="4.84"/><circle class="cls-2" cx="287.73" cy="141.15" r="4.84"/></g></g></g></svg>