<svg xmlns="http://www.w3.org/2000/svg" viewBox="0 0 125.13 74.76"><title>cuello</title><g id="Capa_2" data-name="Capa 2"><g id="Capa_1-2" data-name="Capa 1"><g id="cuello"><path d="M8.69.12C10.2,16,15.17,41.76,26.18,50.53S45.07,65.14,60.12,66.94s32.82-9.67,39.79-16.63S110.7,31.65,112.27,26.7,117.41.37,117.41.37a62.86,62.86,0,0,1,7.72,3.74c-.56,14.8-6.57,34.51-9.49,38.1S112,53.68,96.54,63.79,64.14,74.2,62.81,74.73,26,69.41,14.27,50.08,0,4.3,0,4.3Z"/><path d="M9.16.31c37.72,18.7,57.89,27,108-.31-.8,6.16-1.6,9.86-1.6,9.86-33,17-64.85,21.25-106,.51A56,56,0,0,1,9.16.31Z"/></g></g></g></svg>