<svg xmlns="http://www.w3.org/2000/svg" viewBox="0 0 600 599.97"><title>cuello_re</title><g id="Capa_2" data-name="Capa 2"><g id="Capa_1-2" data-name="Capa 1"><g id="cuello_re"><path d="M0,596.8V600H3.08A10.35,10.35,0,0,1,0,596.8Z"/><path d="M3.19,0H0V3.08A10.27,10.27,0,0,1,3.19,0Z"/><path d="M600,3.19V0H596.9A10.39,10.39,0,0,1,600,3.19Z"/><path d="M596.82,600H600v-3.08A10.5,10.5,0,0,1,596.82,600Z"/><g id="cuello"><path d="M250.45,74.8c1.52,15.84,6.49,41.64,17.5,50.41s18.88,14.61,33.94,16.41S334.71,132,341.68,125s10.78-18.66,12.36-23.6,5.13-26.34,5.13-26.34a62.52,62.52,0,0,1,7.73,3.74c-.57,14.8-6.57,34.51-9.49,38.1s-3.6,11.47-19.11,21.58-32.39,10.41-33.72,10.94-36.85-5.32-48.54-24.65S241.77,79,241.77,79Z"/><path d="M250.37,74.46c37.72,18.71,58.85,27.42,109,.15-.8,6.16-1.34,9.55-1.34,9.55-33,17-65.52,21.63-106.62.89C250.62,78.24,250.37,74.46,250.37,74.46Z"/></g></g></g></g></svg>