<svg xmlns="http://www.w3.org/2000/svg" viewBox="0 0 600 599.97"><title>fondo_cam_re</title><g id="Capa_2" data-name="Capa 2"><g id="Capa_1-2" data-name="Capa 1"><g id="fondo_cam_re"><path d="M0,596.8V600H3.08A10.35,10.35,0,0,1,0,596.8Z"/><path d="M3.19,0H0V3.08A10.27,10.27,0,0,1,3.19,0Z"/><path d="M600,3.19V0H596.9A10.39,10.39,0,0,1,600,3.19Z"/><path d="M596.82,600H600v-3.08A10.5,10.5,0,0,1,596.82,600Z"/><path id="color" d="M528.07,171.17c-7.9-4.3-77.86-51.3-85.4-58.12s-51.3-23-58.48-25.83c-7.81-3.37-5.58-3.17-8-7.83-4.05-7.91-16.42-24.13-16.42-24.13a15.81,15.81,0,0,0-4.26-4.46A16.14,16.14,0,0,0,347.39,48l-86.76.61a14.84,14.84,0,0,0-7.7,2.64,14.66,14.66,0,0,0-4.26,4.66c-2.42,4-4.82,8-7.25,12-3.8,6.34-7.95,13.33-9.37,16-2.93,1.42-4.22,2.24-7.05,3.37-7.17,2.87-50.95,19-58.48,25.83S89,166.87,81.13,171.17,60.68,187,60.68,187s13.63,26.55,24.39,39.83S135,277,135,277a161.61,161.61,0,0,1,16.5-11.13c7.18-3.94,19.61-17.58,19.61-17.58v23L170,537.1s3.23,0,13.27,0,48.56-1,66.86-.32,54.48,0,54.48,0,36.18.72,54.48,0,56.15.28,66.19.32,13.28,0,13.28,0l-.42-265.82v-23s12.44,13.64,19.61,17.58A162.26,162.26,0,0,1,474.25,277s39.11-37,49.87-50.23S548.52,187,548.52,187,536,175.48,528.07,171.17Z"/></g></g></g></svg>