<svg xmlns="http://www.w3.org/2000/svg" viewBox="0 0 600 599.97"><title>mangas_re</title><g id="Capa_2" data-name="Capa 2"><g id="Capa_1-2" data-name="Capa 1"><g id="mangas_re"><path d="M0,596.8V600H3.08A10.35,10.35,0,0,1,0,596.8Z"/><path d="M3.19,0H0V3.08A10.27,10.27,0,0,1,3.19,0Z"/><path d="M600,3.19V0H596.9A10.39,10.39,0,0,1,600,3.19Z"/><path d="M596.82,600H600v-3.08A10.5,10.5,0,0,1,596.82,600Z"/><g id="mangas"><path d="M524.12,226.79c10.76-13.28,24.4-39.83,24.4-39.83a61.72,61.72,0,0,0-5.65-5.41,79.64,79.64,0,0,0-5.36,8.28c-1.2,2-4.33,5.84-6.84,10.17-2.81,4.08-11.48,15.91-14.44,20.31-2.21,3.12-5.67,7-10.84,12.92s-20.53,22.45-23.76,26.17-9.68,9.28-11.76,14.38c2.6,1.87,4.38,3.24,4.38,3.24S513.36,240.06,524.12,226.79Z"/><path d="M85.07,226.79C95.84,240.06,135,277,135,277s1.73-1.33,4.26-3.16a42.77,42.77,0,0,0-3.68-5.7c-2.83-3.5-18.68-20.61-26.53-29.37-4.11-4.58-8.56-9.24-13-14.65-5.19-6.33-8.85-12.19-13.38-18.39-3.17-4.35-11-16.64-16.19-23.82-3.37,2.83-5.77,5-5.77,5S74.31,213.51,85.07,226.79Z"/></g></g></g></g></svg>