<svg xmlns="http://www.w3.org/2000/svg" viewBox="0 0 487.84 95.09"><title>mangas</title><g id="Capa_2" data-name="Capa 2"><g id="Capa_1-2" data-name="Capa 1"><g id="mangas"><path d="M463.45,44.86C474.21,31.58,487.84,5,487.84,5s-2.4-2.19-5.76-5l-.49.75-.11-.07-.52.76.13.08-.51.77-.13-.09c-.16.25-.33.5-.51.76l.14.09-.51.77-.13-.09-.51.76.14.09-.51.76-.13-.09-.51.77.13.09-.5.76-.14-.09-.5.76.13.09-.51.76-.13-.08-.5.76.12.08-.51.76-.12-.08-.5.76.11.08-.51.76-.11-.08-.51.77.11.07-.51.76-.11-.07-.5.76.1.06-.52.76-.09-.06-.51.75.09.07-.52.75-.09-.06c-.17.26-.34.52-.52.78l.08.07-.5.73-.08-.06-.51.76.08.05-.52.76-.08-.06-.52.77.07.06-.51.73-.07-.05c-.17.25-.35.5-.52.76l.07.05-.52.75L467.2,22l-.52.75.07.05-.52.75-.07-.05-.52.75.07.05-.52.75-.07-.05-.53.75.07.05-.52.75-.08-.05-.53.75.08.05-.53.75L463,28l-.53.75.08.06-.53.74-.08-.06-.53.74.08.07L461,31l-.09-.07-.54.75.1.06-.54.75-.1-.08-.54.74.11.08-.54.74-.11-.08c-.18.24-.36.49-.55.73l.12.09-.54.73-.12-.08c-.18.24-.37.48-.55.73l.12.09-.54.74-.13-.1-.55.73.13.1-.55.73-.14-.1-.55.72.14.11-.55.73-.15-.11-.57.72.16.12-.56.72-.16-.12-.57.72.16.12-.57.72L452,42.6l-.58.72.16.12c-.19.25-.39.48-.58.72l-.15-.13-.58.71.15.12-.59.7-.14-.11c-.19.23-.38.47-.58.7h0l.12.11-.61.68-.11-.09-.6.69.1.09-.61.68-.1-.09-.62.69.1.1-.6.67-.1-.1c-.21.22-.41.45-.62.68l.11.1L445,51l-.11-.11-.62.68.12.11-.61.68-.12-.11L443,53l.13.12-.61.68-.13-.12-.62.68.13.12-.61.68L441.2,55l-.61.68.13.12-.62.67-.12-.11-.61.69.12.1-.61.68-.11-.09-.6.68.09.09-.61.68-.09-.08-.61.68.08.07-.61.68-.08-.07-.61.68.08.07-.62.67-.07-.06c-.2.22-.41.44-.61.67l.07.07-.62.68-.07-.07-.61.68.07.06-.62.68-.07-.06-.61.67.07.07-.62.68-.07-.07c-.2.23-.41.45-.62.68l.08.06-.62.68-.07-.07-.62.68.07.06-.61.68-.08-.07-.61.68.07.07-.61.67-.08-.07-.62.67.08.08-.61.67-.09-.07-.62.67L426,72l-.62.68-.09-.09-.62.68.1.08-.62.68L424,74l-.62.67.1.09-.61.68-.11-.1-.63.66.12.11-.62.68-.13-.12c-.23.23-.41.43-.55.56a.76.76,0,0,1-.09.09l.16.14-.62.68-.17-.16c-.21.21-.42.44-.63.67l.18.16-.62.68L419,79.3l-.61.68.18.17-.62.67-.17-.15-.61.68.16.15-.62.67-.14-.14-.61.69.14.13-.62.67-.14-.12-.62.67.14.13-.62.68-.15-.14-.6.69.13.12-.62.68-.09-.08-.55.71.09.06-.5.76-.13-.08c-.18.24-.36.49-.53.74l.16.11-.49.76-.17-.11-.48.78.15.1-.5.77-.1-.07a8.9,8.9,0,0,0-.55,1.25c2.54,1.83,4.27,3.16,4.27,3.16S452.68,58.13,463.45,44.86Z"/><path d="M24.4,44.86C35.16,58.13,74.27,95.09,74.27,95.09s1.73-1.33,4.27-3.16a42.42,42.42,0,0,0-3.69-5.7C72,82.73,56.17,65.63,48.32,56.87c-4.1-4.58-8.55-9.25-13-14.66C30.16,35.88,26.49,30,22,23.82,18.79,19.47,10.93,7.18,5.77,0,2.41,2.83,0,5,0,5S13.63,31.58,24.4,44.86Z"/></g></g></g></svg>