<svg xmlns="http://www.w3.org/2000/svg" viewBox="0 0 600 599.97"><title>mangas_altas_re</title><g id="Capa_2" data-name="Capa 2"><g id="Capa_1-2" data-name="Capa 1"><g id="mangas_altas_re"><path d="M183.37,158.38c-.71-19.77-5.36-37.51-10.45-49.38a34.88,34.88,0,0,0-6.4,4C159,119.87,89,166.87,81.13,171.17S60.68,187,60.68,187s13.63,26.55,24.39,39.83S135,277,135,277a161.61,161.61,0,0,1,16.5-11.13c6.25-3.44,16.5-14.23,19-16.95C178.67,219.87,185.55,168.26,183.37,158.38Z"/><path d="M457.74,265.89A162.26,162.26,0,0,1,474.25,277s39.11-37,49.87-50.23S548.52,187,548.52,187,536,175.48,528.07,171.17s-77.86-51.3-85.4-58.12a33.88,33.88,0,0,0-6.27-4c-10.62,25.45-14.62,50.87-6.44,97.35,2.5,15.49,5.41,30.13,8.38,42.12C440,250.29,451.1,262.24,457.74,265.89Z"/><path d="M0,596.8V600H3.08A10.35,10.35,0,0,1,0,596.8Z"/><path d="M3.19,0H0V3.08A10.27,10.27,0,0,1,3.19,0Z"/><path d="M600,3.19V0H596.9A10.39,10.39,0,0,1,600,3.19Z"/><path d="M596.82,600H600v-3.08A10.5,10.5,0,0,1,596.82,600Z"/></g></g></g></svg>